<svg width="1728" height="2126" viewBox="0 0 1728 2126" fill="none" xmlns="http://www.w3.org/2000/svg">
<path opacity="0.0144928" d="M2102.64 2905.39C2111.51 2910.59 2122.83 2909.16 2130.29 2901.91L2545.78 2498.08C2550.13 2493.85 2552.68 2488.1 2552.86 2482.06L2577.95 1666.91C2578.1 1662.18 2576.79 1657.55 2574.21 1653.63L2182.31 1058.22C2177.56 1051 2169.14 1047.14 2160.52 1048.22L1660.86 1111.09C1652.24 1112.17 1644.91 1118.02 1641.9 1126.22L1393.44 1802.19C1391.8 1806.65 1391.56 1811.48 1392.75 1816.03L1598.49 2602.14C1600.02 2607.97 1603.77 2612.93 1608.94 2615.96L2102.64 2905.39Z" stroke="url(#paint0_linear_26_462)" stroke-opacity="0.3" stroke-width="4"/>
<path opacity="0.0289855" d="M2015.58 2900.37C2024.17 2906.01 2035.52 2905.19 2043.34 2898.36L2476.42 2520.31C2481 2516.32 2483.84 2510.71 2484.34 2504.68L2551.22 1698.88C2551.61 1694.17 2550.54 1689.46 2548.16 1685.4L2189.93 1075.37C2185.56 1067.92 2177.35 1063.62 2168.7 1064.25L1669.65 1100.32C1661 1100.95 1653.38 1106.4 1649.95 1114.41L1368.58 1770.68C1366.7 1775.04 1366.21 1779.86 1367.17 1784.48L1530.86 2573.61C1532.08 2579.51 1535.58 2584.67 1540.59 2587.97L2015.58 2900.37Z" stroke="url(#paint1_linear_26_462)" stroke-opacity="0.3" stroke-width="4"/>
<path opacity="0.0434783" d="M1929.29 2892.68C1937.56 2898.75 1948.92 2898.54 1957.07 2892.15L2406.22 2540.66C2411 2536.91 2414.14 2531.46 2414.95 2525.46L2522.68 1731.21C2523.32 1726.51 2522.49 1721.74 2520.31 1717.56L2196.15 1094.82C2192.16 1087.16 2184.19 1082.44 2175.52 1082.6L1678.49 1092.1C1669.82 1092.26 1661.94 1097.29 1658.09 1105.1L1345.19 1740.01C1343.09 1744.28 1342.35 1749.08 1343.07 1753.75L1465 2543.61C1465.92 2549.57 1469.15 2554.91 1474 2558.47L1929.29 2892.68Z" stroke="url(#paint2_linear_26_462)" stroke-opacity="0.3" stroke-width="4"/>
<path opacity="0.057971" d="M1843.9 2882.39C1851.84 2888.87 1863.16 2889.26 1871.63 2883.34L2335.27 2559.08C2340.25 2555.6 2343.67 2550.31 2344.8 2544.36L2492.33 1763.79C2493.21 1759.12 2492.63 1754.3 2490.66 1750L2200.85 1116.46C2197.26 1108.61 2189.55 1103.48 2180.89 1103.19L1687.23 1086.39C1678.57 1086.09 1670.44 1090.68 1666.2 1098.26L1323.24 1710.27C1320.91 1714.43 1319.92 1719.19 1320.4 1723.91L1400.99 2512.24C1401.6 2518.25 1404.56 2523.76 1409.23 2527.57L1843.9 2882.39Z" stroke="url(#paint3_linear_26_462)" stroke-opacity="0.3" stroke-width="4"/>
<path opacity="0.0724638" d="M1759.54 2869.58C1767.12 2876.44 1778.38 2877.43 1787.13 2871.99L2263.69 2575.56C2268.85 2572.35 2272.55 2567.25 2273.98 2561.36L2460.16 1796.51C2461.29 1791.88 2460.95 1787.03 2459.2 1782.62L2203.93 1140.2C2200.75 1132.18 2193.31 1126.66 2184.7 1125.9L1695.73 1083.17C1687.12 1082.41 1678.77 1086.56 1674.13 1093.89L1302.64 1681.53C1300.09 1685.56 1298.85 1690.28 1299.09 1695.02L1338.88 2479.62C1339.18 2485.66 1341.86 2491.33 1346.34 2495.38L1759.54 2869.58Z" stroke="url(#paint4_linear_26_462)" stroke-opacity="0.3" stroke-width="4"/>
<path opacity="0.0869565" d="M1676.33 2854.31C1683.55 2861.55 1694.71 2863.13 1703.71 2858.18L2191.58 2590.09C2196.91 2587.16 2200.88 2582.25 2202.62 2576.44L2426.19 1829.28C2427.56 1824.7 2427.47 1819.83 2425.94 1815.32L2205.29 1165.92C2202.52 1157.76 2195.39 1151.86 2186.83 1150.65L1703.88 1082.4C1695.32 1081.19 1686.78 1084.87 1681.77 1091.94L1283.35 1653.84C1280.59 1657.74 1279.1 1662.4 1279.1 1667.17L1278.72 2445.87C1278.72 2451.93 1281.11 2457.73 1285.38 2462.02L1676.33 2854.31Z" stroke="url(#paint5_linear_26_462)" stroke-opacity="0.3" stroke-width="4"/>
<path opacity="0.101449" d="M1594.41 2836.69C1601.23 2844.27 1612.26 2846.43 1621.48 2841.99L2119.06 2602.64C2124.54 2600 2128.76 2595.31 2130.8 2589.59L2390.41 1861.99C2392.02 1857.48 2392.18 1852.59 2390.88 1848L2204.84 1193.52C2202.49 1185.23 2195.68 1178.97 2187.21 1177.31L1711.53 1084.03C1703.06 1082.37 1694.36 1085.59 1688.99 1092.37L1265.3 1627.28C1262.32 1631.04 1260.59 1635.62 1260.34 1640.4L1220.57 2411.1C1220.25 2417.16 1222.35 2423.09 1226.41 2427.6L1594.41 2836.69Z" stroke="url(#paint6_linear_26_462)" stroke-opacity="0.3" stroke-width="4"/>
<path opacity="0.115942" d="M1513.88 2816.79C1520.29 2824.7 1531.16 2827.44 1540.57 2823.52L2046.22 2613.22C2051.84 2610.88 2056.3 2606.42 2058.64 2600.8L2352.86 1894.55C2354.7 1890.12 2355.12 1885.23 2354.04 1880.55L2202.5 1222.87C2200.56 1214.48 2194.09 1207.88 2185.73 1205.77L1718.58 1088.03C1710.22 1085.92 1701.37 1088.66 1695.67 1095.13L1248.41 1601.9C1245.23 1605.5 1243.26 1610 1242.77 1614.77L1164.45 2375.44C1163.83 2381.48 1165.63 2387.53 1169.46 2392.25L1513.88 2816.79Z" stroke="url(#paint7_linear_26_462)" stroke-opacity="0.3" stroke-width="4"/>
<path opacity="0.130435" d="M1434.84 2794.73C1440.84 2802.94 1451.51 2806.24 1461.09 2802.85L1973.17 2621.83C1978.91 2619.8 1983.61 2615.57 1986.24 2610.08L2313.54 1926.86C2315.62 1922.52 2316.28 1917.64 2315.44 1912.9L2198.18 1253.85C2196.67 1245.38 2190.55 1238.46 2182.33 1235.91L1724.89 1094.33C1716.67 1091.78 1707.71 1094.04 1701.68 1100.18L1232.62 1577.75C1229.25 1581.18 1227.03 1585.59 1226.3 1590.35L1110.41 2339C1109.48 2345.02 1110.97 2351.16 1114.56 2356.08L1434.84 2794.73Z" stroke="url(#paint8_linear_26_462)" stroke-opacity="0.3" stroke-width="4"/>
<path opacity="0.144928" d="M1357.42 2770.61C1362.97 2779.09 1373.41 2782.94 1383.12 2780.09L1900.02 2628.47C1905.87 2626.76 1910.79 2622.78 1913.71 2617.43L2272.49 1958.83C2274.8 1954.59 2275.71 1949.72 2275.11 1944.93L2191.81 1286.35C2190.73 1277.81 2184.99 1270.59 2176.93 1267.61L1730.36 1102.86C1722.29 1099.89 1713.25 1101.66 1706.92 1107.46L1217.85 1554.88C1214.29 1558.14 1211.85 1562.44 1210.87 1567.17L1058.46 2301.91C1057.22 2307.88 1058.41 2314.11 1061.75 2319.22L1357.42 2770.61Z" stroke="url(#paint9_linear_26_462)" stroke-opacity="0.3" stroke-width="4"/>
<path opacity="0.15942" d="M1281.69 2744.53C1286.79 2753.26 1296.97 2757.64 1306.79 2755.34L1826.87 2633.16C1832.81 2631.77 1837.94 2628.06 1841.14 2622.85L2229.73 1990.35C2232.26 1986.22 2233.43 1981.39 2233.07 1976.55L2183.34 1320.22C2182.69 1311.65 2177.33 1304.14 2169.45 1300.75L1734.87 1113.57C1726.99 1110.18 1717.89 1111.46 1711.27 1116.9L1204.04 1533.35C1200.3 1536.42 1197.62 1540.6 1196.4 1545.29L1008.63 2264.29C1007.09 2270.2 1007.96 2276.5 1011.05 2281.78L1281.69 2744.53Z" stroke="url(#paint10_linear_26_462)" stroke-opacity="0.3" stroke-width="4"/>
<path opacity="0.173913" d="M1207.74 2716.6C1212.39 2725.56 1222.28 2730.46 1232.16 2728.7L1753.82 2635.91C1759.84 2634.84 1765.17 2631.41 1768.64 2626.37L2185.3 2021.34C2188.06 2017.34 2189.48 2012.55 2189.36 2007.67L2172.7 1355.34C2172.48 1346.76 2167.53 1338.99 2159.86 1335.19L1738.32 1126.38C1730.64 1122.57 1721.51 1123.36 1714.63 1128.43L1191.1 1513.18C1187.19 1516.05 1184.29 1520.11 1182.82 1524.75L960.928 2226.26C959.08 2232.1 959.631 2238.45 962.458 2243.9L1207.74 2716.6Z" stroke="url(#paint11_linear_26_462)" stroke-opacity="0.3" stroke-width="4"/>
<path opacity="0.188406" d="M1135.66 2686.96C1139.84 2696.11 1149.42 2701.5 1159.34 2700.3L1680.98 2636.76C1687.05 2636.02 1692.57 2632.87 1696.3 2628.01L2139.25 2051.71C2142.23 2047.84 2143.89 2043.11 2144.01 2038.21L2159.85 1391.57C2160.06 1383 2155.53 1375 2148.08 1370.8L1740.61 1141.2C1733.16 1137 1724.02 1137.3 1716.89 1141.97L1178.96 1494.42C1174.88 1497.09 1171.76 1501 1170.05 1505.58L915.354 2187.95C913.206 2193.71 913.436 2200.1 915.992 2205.7L1135.66 2686.96Z" stroke="url(#paint12_linear_26_462)" stroke-opacity="0.3" stroke-width="4"/>
<path opacity="0.202899" d="M1065.53 2655.71C1069.23 2665.03 1078.46 2670.9 1088.39 2670.24L1608.44 2635.72C1614.55 2635.31 1620.23 2632.46 1624.22 2627.79L2091.62 2081.38C2094.8 2077.65 2096.72 2072.99 2097.09 2068.08L2144.76 1428.79C2145.39 1420.25 2141.28 1412.04 2134.08 1407.46L1741.64 1157.95C1734.44 1153.38 1725.33 1153.18 1717.98 1157.45L1167.53 1477.1C1163.3 1479.55 1159.97 1483.31 1158.02 1487.82L871.907 2149.49C869.464 2155.14 869.371 2161.55 871.648 2167.29L1065.53 2655.71Z" stroke="url(#paint13_linear_26_462)" stroke-opacity="0.3" stroke-width="4"/>
<path opacity="0.217391" d="M997.396 2622.98C1000.61 2632.44 1009.48 2638.76 1019.38 2638.65L1536.29 2632.83C1542.42 2632.76 1548.26 2630.21 1552.5 2625.75L2042.45 2110.25C2045.84 2106.69 2048 2102.11 2048.62 2097.19L2127.38 1466.85C2128.44 1458.36 2124.76 1449.96 2117.83 1445.02L1741.33 1176.55C1734.39 1171.61 1725.33 1170.93 1717.78 1174.79L1156.74 1461.24C1152.37 1463.48 1148.83 1467.07 1146.64 1471.5L830.578 2110.99C827.844 2116.52 827.426 2122.93 829.418 2128.8L997.396 2622.98Z" stroke="url(#paint14_linear_26_462)" stroke-opacity="0.3" stroke-width="4"/>
<path opacity="0.231884" d="M931.33 2588.9C934.058 2598.47 942.537 2605.23 952.376 2605.66L1464.63 2628.13C1470.76 2628.4 1476.74 2626.16 1481.22 2621.92L1991.81 2138.26C1995.4 2134.86 1997.8 2130.37 1998.66 2125.47L2107.69 1505.62C2109.17 1497.2 2105.94 1488.64 2099.29 1483.35L1739.59 1196.91C1732.94 1191.61 1723.95 1190.45 1716.22 1193.88L1146.5 1446.88C1142 1448.88 1138.26 1452.3 1135.83 1456.63L791.35 2072.57C788.331 2077.97 787.588 2084.37 789.289 2090.34L931.33 2588.9Z" stroke="url(#paint15_linear_26_462)" stroke-opacity="0.3" stroke-width="4"/>
<path opacity="0.246377" d="M867.38 2553.59C869.618 2563.26 877.685 2570.41 887.436 2571.38L1393.55 2621.66C1399.67 2622.27 1405.77 2620.36 1410.47 2616.35L1939.74 2165.32C1943.52 2162.09 1946.17 2157.71 1947.28 2152.83L2085.69 1544.95C2087.58 1536.64 2084.8 1527.94 2078.46 1522.31L1736.34 1218.91C1730 1213.29 1721.11 1211.65 1713.23 1214.65L1136.74 1434.02C1132.11 1435.78 1128.18 1439.02 1125.52 1443.24L754.202 2034.35C750.903 2039.6 749.836 2045.98 751.24 2052.05L867.38 2553.59Z" stroke="url(#paint16_linear_26_462)" stroke-opacity="0.3" stroke-width="4"/>
<path opacity="0.26087" d="M805.589 2517.2C807.335 2526.92 814.972 2534.45 824.605 2535.95L824.305 2537.94L824.605 2535.95L1323.13 2613.48C1329.22 2614.43 1335.42 2612.84 1340.34 2609.08L1886.32 2191.36C1890.29 2188.32 1893.17 2184.06 1894.53 2179.21L2061.35 1584.72C2063.65 1576.53 2061.33 1567.72 2055.31 1561.78L1731.52 1242.48C1725.49 1236.53 1716.74 1234.43 1708.73 1236.99L1127.37 1422.69C1122.63 1424.2 1118.51 1427.24 1115.63 1431.35L719.103 1996.46C715.532 2001.54 714.14 2007.88 715.244 2014.03L805.589 2517.2Z" stroke="url(#paint17_linear_26_462)" stroke-opacity="0.3" stroke-width="4"/>
<path opacity="0.275362" d="M745.994 2479.84C747.248 2489.59 754.437 2497.48 763.923 2499.49L1253.45 2603.63C1259.49 2604.92 1265.79 2603.66 1270.91 2600.16L1831.61 2216.31C1835.75 2213.47 1838.86 2209.34 1840.47 2204.54L2034.69 1624.79C2037.39 1616.74 2035.52 1607.84 2029.84 1601.6L1725.05 1267.49C1719.36 1261.25 1710.76 1258.68 1702.64 1260.8L1118.3 1412.89C1113.46 1414.15 1109.17 1416.98 1106.06 1420.96L686.017 1958.99C682.181 1963.9 680.468 1970.18 681.266 1976.39L745.994 2479.84Z" stroke="url(#paint18_linear_26_462)" stroke-opacity="0.3" stroke-width="4"/>
<path opacity="0.289855" d="M688.621 2441.65C689.385 2451.42 696.11 2459.62 705.421 2462.14L1184.6 2592.17C1190.57 2593.79 1196.94 2592.88 1202.25 2589.64L1775.67 2240.1C1779.97 2237.48 1783.31 2233.48 1785.17 2228.74L2005.7 1665.02C2008.79 1657.13 2007.39 1648.16 2002.05 1641.65L1716.88 1293.85C1711.54 1287.34 1703.12 1284.32 1694.92 1285.98L1109.46 1404.63C1104.54 1405.62 1100.07 1408.24 1096.75 1412.07L654.903 1922.07C650.811 1926.79 648.777 1933 649.268 1939.26L688.621 2441.65Z" stroke="url(#paint19_linear_26_462)" stroke-opacity="0.3" stroke-width="4"/>
<path opacity="0.304348" d="M633.493 2402.77C633.771 2412.52 640.018 2421.01 649.126 2424.03L1116.65 2579.17C1122.54 2581.12 1128.96 2580.55 1134.45 2577.59L1718.58 2262.69C1723.04 2260.28 1726.6 2256.44 1728.7 2251.77L1974.41 1705.28C1977.87 1697.56 1976.94 1688.57 1971.96 1681.8L1706.96 1321.45C1701.98 1314.68 1693.76 1311.22 1685.51 1312.43L1100.77 1397.9C1095.77 1398.63 1091.15 1401.02 1087.62 1404.7L625.715 1885.81C621.375 1890.33 619.025 1896.44 619.205 1902.73L633.493 2402.77Z" stroke="url(#paint20_linear_26_462)" stroke-opacity="0.3" stroke-width="4"/>
<path opacity="0.318841" d="M580.619 2363.33C580.416 2373.03 586.174 2381.79 595.052 2385.29L1049.67 2564.67C1055.45 2566.95 1061.92 2566.74 1067.57 2564.07L1660.41 2284C1665.02 2281.82 1668.79 2278.15 1671.13 2273.56L1940.82 1745.43C1944.66 1737.92 1944.19 1728.91 1939.59 1721.91L1695.24 1350.17C1690.64 1343.17 1682.64 1339.29 1674.35 1340.04L1092.13 1392.71C1087.08 1393.16 1082.31 1395.32 1078.57 1398.83L598.395 1850.3C593.819 1854.6 591.157 1860.6 591.024 1866.92L580.619 2363.33Z" stroke="url(#paint21_linear_26_462)" stroke-opacity="0.3" stroke-width="4"/>
<path opacity="0.333333" d="M530.009 2323.46C529.33 2333.09 534.589 2342.08 543.212 2346.05L983.729 2548.76C989.389 2551.37 995.872 2551.5 1001.67 2549.13L1601.24 2303.99C1605.98 2302.05 1609.97 2298.55 1612.55 2294.06L1904.99 1785.35C1909.18 1778.05 1909.17 1769.06 1904.95 1761.84L1681.68 1379.91C1677.46 1372.7 1669.71 1368.41 1661.42 1368.7L1083.49 1389.04C1078.38 1389.22 1073.47 1391.13 1069.54 1394.46L572.889 1815.65C568.086 1819.72 565.117 1825.6 564.671 1831.92L530.009 2323.46Z" stroke="url(#paint22_linear_26_462)" stroke-opacity="0.3" stroke-width="4"/>
<path opacity="0.347826" d="M481.658 2283.3C480.511 2292.83 485.262 2302.03 493.607 2306.44L918.886 2531.51C924.408 2534.43 930.891 2534.91 936.823 2532.85L1541.14 2322.61C1546.02 2320.91 1550.2 2317.61 1553.02 2313.22L1866.93 1824.91C1871.47 1817.85 1871.91 1808.89 1868.09 1801.48L1666.25 1410.56C1662.43 1403.15 1654.94 1398.47 1646.67 1398.3L1074.74 1386.88C1069.61 1386.78 1064.57 1388.44 1060.45 1391.58L549.132 1781.96C544.112 1785.79 540.842 1791.53 540.083 1797.83L481.658 2283.3Z" stroke="url(#paint23_linear_26_462)" stroke-opacity="0.3" stroke-width="4"/>
<path opacity="0.362319" d="M435.556 2242.97C433.95 2252.37 438.186 2261.75 446.231 2266.6L855.2 2512.97C860.565 2516.21 867.031 2517.05 873.08 2515.3L1480.21 2339.82C1485.2 2338.38 1489.57 2335.27 1492.62 2331.01L1826.69 1863.98C1831.56 1857.17 1832.46 1848.28 1829.04 1840.7L1648.92 1441.99C1645.5 1434.42 1638.3 1429.35 1630.07 1428.73L1065.82 1386.22C1060.67 1385.84 1055.52 1387.23 1051.22 1390.18L527.051 1749.31C521.828 1752.89 518.264 1758.47 517.193 1764.75L435.556 2242.97Z" stroke="url(#paint24_linear_26_462)" stroke-opacity="0.3" stroke-width="4"/>
<path opacity="0.376812" d="M391.687 2202.6C389.632 2211.86 393.35 2221.39 401.072 2226.65L792.726 2493.24C797.918 2496.78 804.347 2497.97 810.498 2496.55L1418.52 2355.58C1423.61 2354.4 1428.16 2351.5 1431.44 2347.37L1784.33 1902.45C1789.51 1895.91 1790.86 1887.1 1787.85 1879.38L1629.68 1474.1C1626.66 1466.39 1619.76 1460.95 1611.61 1459.88L1056.65 1387.04C1051.5 1386.36 1046.25 1387.49 1041.77 1390.23L506.577 1717.81C501.163 1721.12 497.312 1726.53 495.93 1732.76L391.687 2202.6Z" stroke="url(#paint25_linear_26_462)" stroke-opacity="0.3" stroke-width="4"/>
<path opacity="0.391304" d="M350.029 2162.32C347.535 2171.42 350.731 2181.07 358.111 2186.71L731.513 2472.39C736.515 2476.22 742.888 2477.77 749.123 2476.67L1356.16 2369.86C1361.33 2368.95 1366.06 2366.27 1369.56 2362.29L1739.89 1940.19C1745.38 1933.94 1747.16 1925.24 1744.57 1917.4L1608.5 1506.78C1605.9 1498.94 1599.32 1493.16 1591.26 1491.64L1047.15 1389.3C1042.01 1388.34 1036.68 1389.18 1032.04 1391.7L487.63 1687.52C482.039 1690.56 477.909 1695.78 476.219 1701.95L350.029 2162.32Z" stroke="url(#paint26_linear_26_462)" stroke-opacity="0.3" stroke-width="4"/>
<path opacity="0.405797" d="M310.549 2122.26C307.629 2131.17 310.302 2140.91 317.32 2146.92L671.603 2450.5C676.4 2454.61 682.698 2456.51 688.999 2455.75L1293.22 2382.62C1298.46 2381.99 1303.35 2379.55 1307.06 2375.72L1693.45 1977.11C1699.22 1971.15 1701.44 1962.58 1699.26 1954.64L1585.39 1539.9C1583.21 1531.96 1576.97 1525.86 1569.03 1523.9L1037.26 1392.99C1032.15 1391.73 1026.75 1392.29 1021.96 1394.59L470.128 1658.53C464.373 1661.28 459.974 1666.3 457.978 1672.39L310.549 2122.26Z" stroke="url(#paint27_linear_26_462)" stroke-opacity="0.3" stroke-width="4"/>
<path opacity="0.42029" d="M273.211 2082.53C269.877 2091.23 272.027 2101.03 278.667 2107.39L613.037 2427.65C617.612 2432.03 623.816 2434.28 630.166 2433.85L1229.77 2393.86C1235.07 2393.51 1240.12 2391.31 1244.03 2387.65L1645.06 2013.08C1651.11 2007.43 1653.74 1999.02 1651.98 1991L1560.34 1573.36C1558.58 1565.34 1552.69 1558.93 1544.89 1556.54L1026.9 1398.06C1021.84 1396.51 1016.37 1396.79 1011.44 1398.84L453.985 1630.91C448.081 1633.37 443.424 1638.17 441.126 1644.17L273.211 2082.53Z" stroke="url(#paint28_linear_26_462)" stroke-opacity="0.3" stroke-width="4"/>
<path opacity="0.434783" d="M237.972 2043.26C234.237 2051.74 235.866 2061.57 242.112 2068.25L555.849 2403.92C560.188 2408.56 566.28 2411.15 572.66 2411.07L1165.91 2403.55C1171.26 2403.48 1176.44 2401.54 1180.56 2398.06L1594.81 2048C1601.1 2042.68 1604.15 2034.44 1602.81 2026.37L1533.37 1607.05C1532.03 1598.97 1526.51 1592.27 1518.87 1589.46L1016 1404.48C1011 1402.65 1005.5 1402.63 1000.44 1404.43L439.113 1604.73C433.075 1606.89 428.171 1611.46 425.576 1617.35L237.972 2043.26Z" stroke="url(#paint29_linear_26_462)" stroke-opacity="0.3" stroke-width="4"/>
<path opacity="0.449275" d="M204.78 2004.55C200.659 2012.79 201.769 2022.63 207.607 2029.61L500.068 2379.39C504.156 2384.28 510.116 2387.22 516.509 2387.48L1101.73 2411.68C1107.11 2411.9 1112.41 2410.22 1116.72 2406.93L1542.77 2081.79C1549.3 2076.8 1552.74 2068.76 1551.83 2060.65L1504.47 1640.85C1503.55 1632.74 1498.41 1625.77 1490.96 1622.55L1004.5 1412.22C999.582 1410.09 994.051 1409.78 988.875 1411.33L425.417 1580.05C419.262 1581.9 414.121 1586.22 411.235 1591.99L204.78 2004.55Z" stroke="url(#paint30_linear_26_462)" stroke-opacity="0.3" stroke-width="4"/>
<path opacity="0.463768" d="M173.581 1966.53C169.089 1974.5 169.685 1984.32 175.101 1991.58L445.72 2354.16C449.544 2359.29 455.353 2362.55 461.739 2363.16L1037.31 2418.24C1042.7 2418.75 1048.12 2417.34 1052.61 2414.25L1489.02 2114.33C1495.76 2109.7 1499.6 2101.87 1499.11 2093.74L1473.67 1674.66C1473.18 1666.53 1468.43 1659.32 1461.19 1655.7L992.342 1421.22C987.515 1418.81 981.973 1418.19 976.694 1419.48L412.804 1556.93C406.548 1558.45 401.184 1562.52 398.012 1568.15L173.581 1966.53Z" stroke="url(#paint31_linear_26_462)" stroke-opacity="0.3" stroke-width="4"/>
<path opacity="0.478261" d="M144.312 1929.29C139.466 1936.98 139.553 1946.76 144.536 1954.27L392.824 2328.31C396.371 2333.65 402.011 2337.24 408.371 2338.2L972.747 2423.22C978.132 2424.03 983.65 2422.9 988.315 2420.02L1433.66 2145.56C1440.6 2141.28 1444.81 2133.69 1444.73 2125.57L1441 1708.37C1440.92 1700.25 1436.58 1692.82 1429.56 1688.81L979.456 1431.45C974.742 1428.76 969.205 1427.83 963.836 1428.85L401.177 1535.41C394.836 1536.61 389.262 1540.41 385.812 1545.89L144.312 1929.29Z" stroke="url(#paint32_linear_26_462)" stroke-opacity="0.3" stroke-width="4"/>
<path opacity="0.492754" d="M116.908 1892.94C111.722 1900.34 111.308 1910.04 115.848 1917.78L341.394 2301.92C344.652 2307.47 350.105 2311.37 356.421 2312.67L908.118 2426.64C913.484 2427.75 919.086 2426.9 923.913 2424.25L1376.77 2175.38C1383.88 2171.47 1388.45 2164.13 1388.8 2156.04L1406.47 1741.87C1406.82 1733.79 1402.89 1726.15 1396.12 1721.77L965.79 1442.85C961.203 1439.88 955.689 1438.65 950.244 1439.39L390.435 1515.53C384.026 1516.41 378.256 1519.93 374.536 1525.24L116.908 1892.94Z" stroke="url(#paint33_linear_26_462)" stroke-opacity="0.3" stroke-width="4"/>
<path opacity="0.507246" d="M91.2945 1857.57C85.7867 1864.66 84.8785 1874.28 88.9666 1882.21L291.443 2275.07C294.399 2280.81 299.647 2285.02 305.9 2286.67L843.513 2428.5C848.843 2429.9 854.515 2429.34 859.493 2426.92L1318.44 2203.73C1325.72 2200.19 1330.64 2193.11 1331.4 2185.08L1370.14 1775.08C1370.89 1767.04 1367.39 1759.23 1360.89 1754.49L951.289 1455.38C946.846 1452.13 941.372 1450.6 935.865 1451.06L380.478 1497.35C374.019 1497.89 368.068 1501.12 364.085 1506.25L91.2945 1857.57Z" stroke="url(#paint34_linear_26_462)" stroke-opacity="0.3" stroke-width="4"/>
<path opacity="0.521739" d="M67.3965 1823.28C61.584 1830.05 60.1906 1839.55 63.8195 1847.65L242.974 2247.86C245.619 2253.77 250.645 2258.27 256.815 2260.27L779.017 2428.8C784.295 2430.51 790.021 2430.24 795.139 2428.06L1258.79 2230.53C1266.21 2227.37 1271.46 2220.58 1272.62 2212.62L1332.03 1807.88C1333.2 1799.92 1330.12 1791.95 1323.91 1786.86L935.904 1468.97C931.62 1465.46 926.203 1463.62 920.65 1463.79L371.203 1480.88C364.712 1481.08 358.594 1484.01 354.358 1488.95L67.3965 1823.28Z" stroke="url(#paint35_linear_26_462)" stroke-opacity="0.3" stroke-width="4"/>
<path opacity="0.536232" d="M45.1308 1790.16C39.0312 1796.6 37.1627 1805.95 40.3263 1814.2L195.987 2220.37C198.311 2226.43 203.099 2231.22 209.167 2233.55L714.714 2427.58C719.922 2429.58 725.686 2429.62 730.933 2427.69L1197.91 2255.72C1205.45 2252.94 1211.01 2246.45 1212.58 2238.58L1292.19 1840.18C1293.76 1832.31 1291.12 1824.21 1285.22 1818.8L919.585 1483.57C915.477 1479.8 910.133 1477.66 904.549 1477.54L362.507 1466.16C356.001 1466.02 349.732 1468.64 345.252 1473.37L45.1308 1790.16Z" stroke="url(#paint36_linear_26_462)" stroke-opacity="0.3" stroke-width="4"/>
<path opacity="0.550725" d="M24.4132 1758.28C18.0447 1764.37 15.7119 1773.56 18.4056 1781.94L150.481 2192.67C152.474 2198.87 157.008 2203.93 162.956 2206.59L650.686 2424.85C655.808 2427.14 661.594 2427.48 666.956 2425.8L1135.91 2279.25C1143.55 2276.86 1149.4 2270.68 1151.37 2262.93L1250.68 1871.9C1252.64 1864.14 1250.44 1855.93 1244.86 1850.21L902.291 1499.12C898.374 1495.11 893.121 1492.67 887.521 1492.26L354.285 1453.19C347.782 1452.72 341.379 1455.02 336.666 1459.53L24.4132 1758.28Z" stroke="url(#paint37_linear_26_462)" stroke-opacity="0.3" stroke-width="4"/>
<path opacity="0.565217" d="M5.1551 1727.72C-1.46396 1733.46 -4.24935 1742.46 -2.02879 1750.93L106.446 2164.86C108.102 2171.18 112.366 2176.5 118.175 2179.48L587.014 2420.63C592.033 2423.21 597.826 2423.86 603.29 2422.45L1072.89 2301.06C1080.61 2299.06 1086.74 2293.21 1089.1 2285.59L1207.54 1902.94C1209.9 1895.32 1208.14 1887.02 1202.9 1881.01L883.981 1515.57C880.27 1511.32 875.125 1508.58 869.526 1507.87L346.435 1442C339.954 1441.19 333.432 1443.17 328.496 1447.44L5.1551 1727.72Z" stroke="url(#paint38_linear_26_462)" stroke-opacity="0.3" stroke-width="4"/>
<path opacity="0.57971" d="M-12.7377 1698.55C-19.5885 1703.93 -22.8137 1712.72 -21.0682 1721.26L63.8692 2137.01C65.1805 2143.43 69.1604 2148.99 74.812 2152.3L523.775 2414.96C528.674 2417.83 534.457 2418.78 540.011 2417.64L1008.96 2321.12C1016.74 2319.51 1023.14 2314 1025.88 2306.53L1162.84 1933.22C1165.58 1925.75 1164.27 1917.4 1159.38 1911.12L864.619 1532.85C861.128 1528.37 856.108 1525.33 850.524 1524.33L338.851 1432.6C332.41 1431.44 325.787 1433.09 320.64 1437.13L-12.7377 1698.55Z" stroke="url(#paint39_linear_26_462)" stroke-opacity="0.3" stroke-width="4"/>
<path opacity="0.594203" d="M-29.361 1670.84C-36.4246 1675.84 -40.0759 1684.4 -38.8062 1692.99L22.7332 2109.21C23.6941 2115.71 27.376 2121.49 32.853 2125.11L461.045 2407.88C465.809 2411.02 471.564 2412.28 477.194 2411.41L944.233 2339.38C952.057 2338.17 958.7 2333.01 961.81 2325.72L1116.64 1962.66C1119.75 1955.37 1118.89 1946.98 1114.36 1940.45L844.171 1550.89C840.914 1546.19 836.036 1542.87 830.484 1541.58L331.43 1424.98C325.047 1423.48 318.339 1424.79 312.993 1428.58L-29.361 1670.84Z" stroke="url(#paint40_linear_26_462)" stroke-opacity="0.3" stroke-width="4"/>
<path opacity="0.608696" d="M-44.8124 1644.64C-52.0694 1649.25 -56.1324 1657.57 -55.3378 1666.17L-16.9823 2081.53C-16.3765 2088.09 -13.0055 2094.08 -7.72034 2098L398.898 2399.41C403.51 2402.83 409.223 2404.4 414.914 2403.81L878.822 2355.83C886.668 2355.01 893.536 2350.21 897.007 2343.11L1069 1991.2C1072.47 1984.09 1072.06 1975.69 1067.91 1968.93L822.609 1569.63C819.599 1564.73 814.879 1561.13 809.374 1559.54L324.071 1419.13C317.763 1417.3 310.987 1418.27 305.455 1421.79L-44.8124 1644.64Z" stroke="url(#paint41_linear_26_462)" stroke-opacity="0.3" stroke-width="4"/>
<path opacity="0.623188" d="M-59.1921 1620C-66.623 1624.23 -71.0825 1632.27 -70.7608 1640.87L-55.3021 2054.04C-55.0551 2060.64 -52.007 2066.83 -46.9302 2071.04L337.405 2389.61C341.85 2393.29 347.503 2395.17 353.243 2394.86L812.838 2370.43C820.686 2370.01 827.76 2365.58 831.582 2358.68L1020 2018.75C1023.82 2011.85 1023.86 2003.46 1020.1 1996.5L799.907 1589.01C797.157 1583.92 792.611 1580.05 787.169 1578.17L316.671 1415.05C310.456 1412.89 303.631 1413.52 297.924 1416.77L-59.1921 1620Z" stroke="url(#paint42_linear_26_462)" stroke-opacity="0.3" stroke-width="4"/>
<path opacity="0.637681" d="M-72.604 1596.96C-80.189 1600.8 -85.0288 1608.56 -85.1767 1617.12L-92.2564 2026.82C-92.3708 2033.45 -89.6567 2039.81 -84.8042 2044.3L276.633 2378.52C280.896 2382.46 286.472 2384.64 292.246 2384.62L746.392 2383.17C754.222 2383.15 761.483 2379.09 765.643 2372.42L969.707 2045.25C973.868 2038.58 974.351 2030.22 970.99 2023.08L776.043 1608.96C773.565 1603.69 769.208 1599.56 763.846 1597.38L309.13 1412.71C303.025 1410.23 296.167 1410.51 290.301 1413.48L-72.604 1596.96Z" stroke="url(#paint43_linear_26_462)" stroke-opacity="0.3" stroke-width="4"/>
<path opacity="0.652174" d="M-85.1516 1575.57C-92.8709 1579.01 -98.0739 1586.46 -98.6868 1594.96L-127.877 1999.95C-128.355 2006.57 -125.984 2013.09 -121.372 2017.85L216.648 2366.19C220.713 2370.38 226.196 2372.86 231.99 2373.13L679.596 2394.05C687.39 2394.42 694.818 2390.75 699.304 2384.32L918.201 2070.65C922.687 2064.22 923.613 2055.92 920.659 2048.62L751 1629.41C748.804 1623.98 744.653 1619.59 739.384 1617.13L301.35 1412.1C295.373 1409.31 288.5 1409.24 282.487 1411.91L-85.1516 1575.57Z" stroke="url(#paint44_linear_26_462)" stroke-opacity="0.3" stroke-width="4"/>
<path opacity="0.666667" d="M-96.9411 1555.85C-104.775 1558.89 -110.323 1566.02 -111.395 1574.44L-162.202 1973.48C-163.043 1980.09 -161.025 1986.75 -156.667 1991.75L157.508 2352.67C161.362 2357.1 166.737 2359.88 172.537 2360.44L612.562 2403.07C620.301 2403.82 627.876 2400.54 632.674 2394.37L865.557 2094.89C870.355 2088.72 871.72 2080.5 869.18 2073.06L724.763 1650.29C722.859 1644.72 718.927 1640.09 713.768 1637.34L293.235 1413.19C287.401 1410.08 280.531 1409.66 274.385 1412.04L-96.9411 1555.85Z" stroke="url(#paint45_linear_26_462)" stroke-opacity="0.3" stroke-width="4"/>
<path opacity="0.681159" d="M-108.077 1537.84C-116.004 1540.46 -121.879 1547.26 -123.403 1555.57L-195.267 1947.49C-196.471 1954.06 -194.815 1960.83 -190.724 1966.08L99.275 2338.02C102.904 2342.68 108.155 2345.75 113.947 2346.6L545.401 2410.22C553.066 2411.35 560.768 2408.47 565.864 2402.57L811.859 2117.92C816.955 2112.02 818.752 2103.9 816.632 2096.36L697.322 1671.54C695.721 1665.84 692.022 1660.97 686.987 1657.94L284.693 1415.94C279.018 1412.53 272.168 1411.76 265.903 1413.84L-108.077 1537.84Z" stroke="url(#paint46_linear_26_462)" stroke-opacity="0.3" stroke-width="4"/>
<path opacity="0.695652" d="M-118.666 1521.53C-126.668 1523.76 -132.85 1530.2 -134.816 1538.38L-227.118 1922.04C-228.684 1928.54 -227.395 1935.42 -223.585 1940.89L42.0007 2322.31C45.392 2327.18 50.5039 2330.54 56.2729 2331.68L478.221 2415.52C485.794 2417.02 493.602 2414.55 498.981 2408.94L757.189 2139.69C762.567 2134.08 764.788 2126.09 763.094 2118.46L668.67 1693.09C667.379 1687.27 663.927 1682.18 659.031 1678.88L275.63 1420.31C270.131 1416.6 263.318 1415.49 256.949 1417.26L-118.666 1521.53Z" stroke="url(#paint47_linear_26_462)" stroke-opacity="0.3" stroke-width="4"/>
<path opacity="0.710145" d="M-128.816 1506.96C-136.87 1508.78 -143.339 1514.86 -145.738 1522.87L-257.8 1897.18C-259.723 1903.6 -258.808 1910.56 -255.292 1916.24L-14.2628 2305.59C-11.1218 2310.66 -6.16411 2314.3 -0.431377 2315.74L411.131 2418.99C418.594 2420.86 426.488 2418.79 432.133 2413.49L701.631 2160.16C707.276 2154.86 709.913 2147.03 708.646 2139.33L638.805 1714.86C637.832 1708.95 634.639 1703.65 629.896 1700.08L265.961 1426.26C260.651 1422.27 253.893 1420.81 247.435 1422.26L-128.816 1506.96Z" stroke="url(#paint48_linear_26_462)" stroke-opacity="0.3" stroke-width="4"/>
<path opacity="0.724638" d="M-138.63 1494.13C-146.717 1495.53 -153.453 1501.23 -156.273 1509.06L-287.36 1872.97C-289.637 1879.3 -289.1 1886.3 -285.888 1892.18L-69.4691 2287.92C-66.59 2293.18 -61.8008 2297.1 -56.1183 2298.82L344.235 2420.65C351.571 2422.88 359.53 2421.23 365.425 2416.23L645.27 2179.31C651.165 2174.32 654.209 2166.67 653.372 2158.93L607.726 1736.8L609.699 1736.57L607.726 1736.8C607.079 1730.81 604.156 1725.32 599.58 1721.49L255.601 1433.74C250.495 1429.47 243.808 1427.67 237.276 1428.81L-138.63 1494.13Z" stroke="url(#paint49_linear_26_462)" stroke-opacity="0.3" stroke-width="4"/>
<path opacity="0.73913" d="M-148.216 1483.02C-156.315 1484.02 -163.295 1489.33 -166.523 1496.95L-315.849 1849.47C-318.477 1855.67 -318.321 1862.72 -315.424 1868.77L-123.576 2269.37C-120.97 2274.82 -116.363 2279 -110.744 2281.01L277.636 2420.54C284.827 2423.12 292.831 2421.87 298.958 2417.21L588.194 2197.1C594.321 2192.44 597.759 2184.98 597.354 2177.24L575.438 1758.84C575.121 1752.78 572.481 1747.11 568.085 1743.03L244.467 1442.7C239.579 1438.16 232.98 1436.02 226.389 1436.83L-148.216 1483.02Z" stroke="url(#paint50_linear_26_462)" stroke-opacity="0.3" stroke-width="4"/>
<path opacity="0.753623" d="M-157.675 1473.64C-165.766 1474.23 -172.967 1479.14 -176.59 1486.53L-343.321 1826.72C-346.291 1832.79 -346.52 1839.84 -343.946 1846.06L-176.543 2250.02C-174.22 2255.63 -169.809 2260.07 -164.268 2262.37L211.435 2418.69C218.466 2421.61 226.493 2420.77 232.835 2416.45L530.49 2213.52C536.831 2209.2 540.652 2201.96 540.676 2194.22L541.948 1780.9C541.967 1774.81 539.62 1768.96 535.416 1764.64L232.484 1453.07C227.827 1448.28 221.331 1445.8 214.696 1446.29L-157.675 1473.64Z" stroke="url(#paint51_linear_26_462)" stroke-opacity="0.3" stroke-width="4"/>
<path opacity="0.768116" d="M-167.109 1465.96C-175.173 1466.16 -182.572 1470.65 -186.574 1477.79L-369.829 1804.78C-373.136 1810.68 -373.749 1817.73 -371.508 1824.08L-228.336 2229.93C-226.305 2235.69 -222.104 2240.38 -216.652 2242.97L145.73 2415.14C152.585 2418.39 160.613 2417.96 167.151 2413.99L472.245 2228.54C478.782 2224.57 482.972 2217.57 483.423 2209.87L507.269 1802.94C507.627 1796.81 505.583 1790.82 501.584 1786.26L219.578 1464.79C215.164 1459.76 208.789 1456.96 202.125 1457.12L-167.109 1465.96Z" stroke="url(#paint52_linear_26_462)" stroke-opacity="0.3" stroke-width="4"/>
<path opacity="0.782609" d="M-176.621 1459.98C-184.636 1459.77 -192.21 1463.85 -196.574 1470.72L-395.432 1783.67C-399.067 1789.39 -400.065 1796.42 -398.165 1802.89L-278.924 2209.18C-277.195 2215.07 -273.216 2220 -267.867 2222.87L80.6122 2409.94C87.2755 2413.51 95.2855 2413.49 101.999 2409.88L413.546 2242.15C420.259 2238.54 424.803 2231.8 425.677 2224.17L471.412 1824.87C472.114 1818.74 470.382 1812.61 466.598 1807.82L205.679 1477.81C201.52 1472.55 195.28 1469.42 188.604 1469.25L-176.621 1459.98Z" stroke="url(#paint53_linear_26_462)" stroke-opacity="0.3" stroke-width="4"/>
<path opacity="0.797101" d="M-186.307 1455.66C-194.254 1455.06 -201.977 1458.71 -206.685 1465.29L-420.187 1763.44C-424.141 1768.97 -425.524 1775.94 -423.969 1782.52L-328.281 2187.83C-326.862 2193.85 -323.117 2199 -317.884 2202.15L16.1726 2403.14C22.6302 2407.03 30.6004 2407.41 37.4692 2404.16L354.48 2254.35C361.349 2251.11 366.23 2244.65 367.523 2237.1L434.396 1846.65C435.444 1840.53 434.031 1834.27 430.475 1829.27L190.723 1492.04C186.829 1486.56 180.74 1483.12 174.067 1482.62L-186.307 1455.66Z" stroke="url(#paint54_linear_26_462)" stroke-opacity="0.3" stroke-width="4"/>
<path opacity="0.811594" d="M-196.263 1452.96C-204.121 1451.98 -211.969 1455.2 -217.001 1461.46L-444.154 1744.13C-448.416 1749.43 -450.181 1756.34 -448.979 1763.01L-376.385 2165.97C-375.283 2172.09 -371.783 2177.47 -366.677 2180.89L-47.5022 2394.81C-41.2642 2398.99 -33.3547 2399.77 -26.3507 2396.9L295.134 2265.14C302.138 2262.27 307.34 2256.11 309.044 2248.68L396.242 1868.2C397.637 1862.12 396.553 1855.75 393.235 1850.54L174.65 1507.41C171.032 1501.73 165.109 1497.98 158.453 1497.15L-196.263 1452.96Z" stroke="url(#paint55_linear_26_462)" stroke-opacity="0.3" stroke-width="4"/>
<path opacity="0.826087" d="M-206.579 1451.86C-214.33 1450.51 -222.277 1453.29 -227.613 1459.22L-467.394 1725.76C-471.953 1730.83 -474.096 1737.64 -473.252 1744.38L-423.216 2143.66C-422.438 2149.87 -419.195 2155.46 -414.229 2159.15L-110.33 2385C-104.325 2389.47 -96.4967 2390.64 -89.3789 2388.15L235.593 2274.52C242.711 2272.03 248.214 2266.19 250.322 2258.89L356.974 1889.48C358.717 1883.45 357.968 1876.98 354.898 1871.58L157.405 1523.86C154.072 1517.99 148.329 1513.93 141.706 1512.78L-206.579 1451.86Z" stroke="url(#paint56_linear_26_462)" stroke-opacity="0.3" stroke-width="4"/>
<path opacity="0.84058" d="M-217.347 1452.32C-224.971 1450.59 -232.992 1452.93 -238.61 1458.51L-489.97 1708.36C-494.814 1713.18 -497.331 1719.87 -496.847 1726.66L-468.763 2120.99C-468.315 2127.27 -465.339 2133.06 -460.525 2137.01L-172.237 2373.79C-166.476 2378.52 -158.749 2380.09 -151.539 2377.98L175.94 2282.5C183.15 2280.4 188.936 2274.89 191.437 2267.75L316.617 1910.42C318.707 1904.46 318.3 1897.92 315.488 1892.33L138.935 1541.29C135.896 1535.24 130.347 1530.9 123.773 1529.41L-217.347 1452.32Z" stroke="url(#paint57_linear_26_462)" stroke-opacity="0.3" stroke-width="4"/>
<path opacity="0.855072" d="M-228.65 1454.27C-236.129 1452.19 -244.198 1454.08 -250.075 1459.31L-511.942 1691.96C-517.057 1696.5 -519.943 1703.06 -519.823 1709.88L-513.014 2098.03C-512.902 2104.37 -510.204 2110.34 -505.552 2114.55L-233.146 2361.24C-227.642 2366.22 -220.037 2368.17 -212.757 2366.46L116.259 2289.1C123.539 2287.39 129.585 2282.23 132.469 2275.27L275.201 1930.97C277.639 1925.09 277.578 1918.5 275.033 1912.73L119.198 1559.63C116.46 1553.42 111.119 1548.79 104.609 1546.98L-228.65 1454.27Z" stroke="url(#paint58_linear_26_462)" stroke-opacity="0.3" stroke-width="4"/>
<path opacity="0.869565" d="M-240.571 1457.67C-247.887 1455.24 -255.977 1456.7 -262.088 1461.54L-533.374 1676.56C-538.747 1680.82 -541.994 1687.23 -542.24 1694.06L-555.965 2074.85C-556.195 2081.23 -553.783 2087.38 -549.305 2091.85L-292.993 2347.43C-287.756 2352.65 -280.292 2354.97 -272.964 2353.65L56.6276 2294.33C63.9558 2293.01 70.2417 2288.22 73.4962 2281.46L232.758 1951.08C235.541 1945.31 235.833 1938.66 233.564 1932.73L98.1504 1578.79C95.7217 1572.44 90.6013 1567.54 84.1702 1565.4L-240.571 1457.67Z" stroke="url(#paint59_linear_26_462)" stroke-opacity="0.3" stroke-width="4"/>
<path opacity="0.884058" d="M-253.186 1462.46C-260.322 1459.7 -268.406 1460.72 -274.728 1465.17L-554.33 1662.19C-559.944 1666.15 -563.545 1672.38 -564.158 1679.2L-597.614 2051.53C-598.19 2057.94 -596.075 2064.26 -591.782 2068.97L-351.715 2332.44C-346.753 2337.89 -339.45 2340.57 -332.096 2339.64L-2.87421 2298.22C4.47937 2297.3 10.982 2292.88 14.593 2286.35L189.323 1970.69C192.448 1965.04 193.097 1958.37 191.112 1952.29L75.7586 1598.69C73.6453 1592.21 68.7582 1587.04 62.4211 1584.59L-253.186 1462.46Z" stroke="url(#paint60_linear_26_462)" stroke-opacity="0.3" stroke-width="4"/>
<path opacity="0.898551" d="M-266.569 1468.58C-273.508 1465.5 -281.561 1466.08 -288.067 1470.14L-574.871 1648.86C-580.711 1652.5 -584.657 1658.54 -585.637 1665.33L-637.965 2028.15C-638.89 2034.56 -637.082 2041.04 -632.983 2045.99L-409.253 2316.36C-404.577 2322.01 -397.453 2325.04 -390.096 2324.51L-62.1712 2300.8C-54.8149 2300.27 -48.1192 2296.24 -44.1668 2289.96L144.932 1989.76C148.396 1984.26 149.406 1977.58 147.714 1971.35L51.9925 1619.24C50.2003 1612.64 45.5586 1607.23 39.3302 1604.46L-266.569 1468.58Z" stroke="url(#paint61_linear_26_462)" stroke-opacity="0.3" stroke-width="4"/>
<path opacity="0.913043" d="M-280.789 1475.97C-287.515 1472.58 -295.511 1472.73 -302.174 1476.38L-595.062 1636.57C-601.11 1639.88 -605.392 1645.7 -606.738 1652.45L-677.026 2004.78C-678.304 2011.19 -676.81 2017.8 -672.917 2022.99L-465.559 2299.26C-461.176 2305.1 -454.248 2308.47 -446.912 2308.33L-121.192 2302.1C-113.856 2301.96 -106.991 2298.33 -102.714 2292.33L99.6223 2008.23C103.422 2002.9 104.796 1996.22 103.404 1989.87L26.8259 1640.35C25.3598 1633.65 20.975 1628 14.8699 1624.92L-280.789 1475.97Z" stroke="url(#paint62_linear_26_462)" stroke-opacity="0.3" stroke-width="4"/>
<path opacity="0.927536" d="M-295.908 1484.55C-302.406 1480.87 -310.319 1480.6 -317.112 1483.83L-614.964 1625.33C-621.202 1628.3 -625.808 1633.89 -627.518 1640.56L-714.807 1981.5C-716.441 1987.88 -715.27 1994.63 -711.592 2000.04L-520.584 2281.23C-516.5 2287.25 -509.787 2290.94 -502.493 2291.19L-179.865 2302.17C-172.571 2302.41 -165.563 2299.19 -160.979 2293.47L53.4378 2026.08C57.5672 2020.93 59.3093 2014.28 58.2244 2007.8L0.241702 1661.93C-0.89414 1655.15 -5.01089 1649.27 -10.9784 1645.89L-295.908 1484.55Z" stroke="url(#paint63_linear_26_462)" stroke-opacity="0.3" stroke-width="4"/>
<path opacity="0.942029" d="M-311.985 1494.25C-318.242 1490.3 -326.047 1489.61 -332.943 1492.42L-634.639 1615.14C-641.048 1617.75 -645.967 1623.08 -648.038 1629.68L-751.325 1958.37C-753.316 1964.71 -752.477 1971.58 -749.023 1977.21L-574.289 2262.37C-570.511 2268.54 -564.028 2272.54 -556.8 2273.17L-238.125 2301.03C-230.897 2301.66 -223.77 2298.85 -218.898 2293.44L6.41932 2043.24C10.8728 2038.3 12.9852 2031.69 12.2142 2025.11L-27.776 1683.89C-28.578 1677.05 -32.4162 1670.95 -38.2321 1667.27L-311.985 1494.25Z" stroke="url(#paint64_linear_26_462)" stroke-opacity="0.3" stroke-width="4"/>
<path opacity="0.956522" d="M-329.075 1505C-335.078 1500.79 -342.75 1499.7 -349.72 1502.08L-654.147 1605.99C-660.708 1608.23 -665.927 1613.29 -668.356 1619.78L-786.598 1935.48C-788.949 1941.75 -788.449 1948.73 -785.23 1954.58L-626.64 2242.77C-623.172 2249.07 -616.935 2253.37 -609.794 2254.38L-295.909 2298.74C-288.767 2299.75 -281.548 2297.35 -276.409 2292.27L-41.3877 2059.7C-36.6169 2054.98 -34.1323 2048.43 -34.5826 2041.75L-57.2348 1706.15C-57.7002 1699.25 -61.2501 1692.95 -66.9006 1688.98L-329.075 1505Z" stroke="url(#paint65_linear_26_462)" stroke-opacity="0.3" stroke-width="4"/>
<path opacity="0.971014" d="M-347.224 1516.72C-352.961 1512.27 -360.477 1510.79 -367.493 1512.74L-673.548 1597.88C-680.24 1599.74 -685.744 1604.51 -688.526 1610.87L-820.649 1912.88C-823.361 1919.08 -823.208 1926.15 -820.233 1932.2L-677.607 2222.52C-674.452 2228.94 -668.476 2233.51 -661.444 2234.89L-353.155 2295.34C-346.123 2296.72 -338.838 2294.75 -333.452 2290L-89.9366 2075.41C-84.8559 2070.93 -81.9976 2064.45 -82.121 2057.7L-88.1375 1728.6C-88.2642 1721.67 -91.5163 1715.18 -96.9882 1710.93L-347.224 1516.72Z" stroke="url(#paint66_linear_26_462)" stroke-opacity="0.3" stroke-width="4"/>
<defs>
<linearGradient id="paint0_linear_26_462" x1="2117.94" y1="2916.68" x2="1865.77" y2="912.543" gradientUnits="userSpaceOnUse">
<stop stop-color="#FF1CF7"/>
<stop offset="1" stop-color="#00F0FF"/>
</linearGradient>
<linearGradient id="paint1_linear_26_462" x1="2030.26" y1="2912.42" x2="1885.8" y2="914.228" gradientUnits="userSpaceOnUse">
<stop stop-color="#FF1CF7"/>
<stop offset="1" stop-color="#00F0FF"/>
</linearGradient>
<linearGradient id="paint2_linear_26_462" x1="1943.3" y1="2905.46" x2="1905.35" y2="919.107" gradientUnits="userSpaceOnUse">
<stop stop-color="#FF1CF7"/>
<stop offset="1" stop-color="#00F0FF"/>
</linearGradient>
<linearGradient id="paint3_linear_26_462" x1="1857.21" y1="2895.85" x2="1924.2" y2="927.144" gradientUnits="userSpaceOnUse">
<stop stop-color="#FF1CF7"/>
<stop offset="1" stop-color="#00F0FF"/>
</linearGradient>
<linearGradient id="paint4_linear_26_462" x1="1772.11" y1="2883.67" x2="1942.16" y2="938.291" gradientUnits="userSpaceOnUse">
<stop stop-color="#FF1CF7"/>
<stop offset="1" stop-color="#00F0FF"/>
</linearGradient>
<linearGradient id="paint5_linear_26_462" x1="1688.15" y1="2869.01" x2="1959" y2="952.481" gradientUnits="userSpaceOnUse">
<stop stop-color="#FF1CF7"/>
<stop offset="1" stop-color="#00F0FF"/>
</linearGradient>
<linearGradient id="paint6_linear_26_462" x1="1605.43" y1="2851.93" x2="1974.53" y2="969.627" gradientUnits="userSpaceOnUse">
<stop stop-color="#FF1CF7"/>
<stop offset="1" stop-color="#00F0FF"/>
</linearGradient>
<linearGradient id="paint7_linear_26_462" x1="1524.08" y1="2832.55" x2="1988.56" y2="989.627" gradientUnits="userSpaceOnUse">
<stop stop-color="#FF1CF7"/>
<stop offset="1" stop-color="#00F0FF"/>
</linearGradient>
<linearGradient id="paint8_linear_26_462" x1="1444.2" y1="2810.94" x2="2000.89" y2="1012.36" gradientUnits="userSpaceOnUse">
<stop stop-color="#FF1CF7"/>
<stop offset="1" stop-color="#00F0FF"/>
</linearGradient>
<linearGradient id="paint9_linear_26_462" x1="1365.91" y1="2787.22" x2="2011.35" y2="1037.69" gradientUnits="userSpaceOnUse">
<stop stop-color="#FF1CF7"/>
<stop offset="1" stop-color="#00F0FF"/>
</linearGradient>
<linearGradient id="paint10_linear_26_462" x1="1289.3" y1="2761.5" x2="2019.79" y2="1065.48" gradientUnits="userSpaceOnUse">
<stop stop-color="#FF1CF7"/>
<stop offset="1" stop-color="#00F0FF"/>
</linearGradient>
<linearGradient id="paint11_linear_26_462" x1="1214.46" y1="2733.88" x2="2026.04" y2="1095.54" gradientUnits="userSpaceOnUse">
<stop stop-color="#FF1CF7"/>
<stop offset="1" stop-color="#00F0FF"/>
</linearGradient>
<linearGradient id="paint12_linear_26_462" x1="1141.48" y1="2704.49" x2="2029.97" y2="1127.72" gradientUnits="userSpaceOnUse">
<stop stop-color="#FF1CF7"/>
<stop offset="1" stop-color="#00F0FF"/>
</linearGradient>
<linearGradient id="paint13_linear_26_462" x1="1070.43" y1="2673.44" x2="2031.47" y2="1161.82" gradientUnits="userSpaceOnUse">
<stop stop-color="#FF1CF7"/>
<stop offset="1" stop-color="#00F0FF"/>
</linearGradient>
<linearGradient id="paint14_linear_26_462" x1="1001.37" y1="2640.86" x2="2030.44" y2="1197.67" gradientUnits="userSpaceOnUse">
<stop stop-color="#FF1CF7"/>
<stop offset="1" stop-color="#00F0FF"/>
</linearGradient>
<linearGradient id="paint15_linear_26_462" x1="934.385" y1="2606.88" x2="2026.8" y2="1235.05" gradientUnits="userSpaceOnUse">
<stop stop-color="#FF1CF7"/>
<stop offset="1" stop-color="#00F0FF"/>
</linearGradient>
<linearGradient id="paint16_linear_26_462" x1="869.514" y1="2571.62" x2="2020.49" y2="1273.77" gradientUnits="userSpaceOnUse">
<stop stop-color="#FF1CF7"/>
<stop offset="1" stop-color="#00F0FF"/>
</linearGradient>
<linearGradient id="paint17_linear_26_462" x1="806.807" y1="2535.22" x2="2011.45" y2="1313.63" gradientUnits="userSpaceOnUse">
<stop stop-color="#FF1CF7"/>
<stop offset="1" stop-color="#00F0FF"/>
</linearGradient>
<linearGradient id="paint18_linear_26_462" x1="746.301" y1="2497.8" x2="1999.67" y2="1354.44" gradientUnits="userSpaceOnUse">
<stop stop-color="#FF1CF7"/>
<stop offset="1" stop-color="#00F0FF"/>
</linearGradient>
<linearGradient id="paint19_linear_26_462" x1="688.028" y1="2459.51" x2="1985.14" y2="1395.99" gradientUnits="userSpaceOnUse">
<stop stop-color="#FF1CF7"/>
<stop offset="1" stop-color="#00F0FF"/>
</linearGradient>
<linearGradient id="paint20_linear_26_462" x1="632.013" y1="2420.48" x2="1967.86" y2="1438.1" gradientUnits="userSpaceOnUse">
<stop stop-color="#FF1CF7"/>
<stop offset="1" stop-color="#00F0FF"/>
</linearGradient>
<linearGradient id="paint21_linear_26_462" x1="578.268" y1="2380.84" x2="1947.85" y2="1480.58" gradientUnits="userSpaceOnUse">
<stop stop-color="#FF1CF7"/>
<stop offset="1" stop-color="#00F0FF"/>
</linearGradient>
<linearGradient id="paint22_linear_26_462" x1="526.803" y1="2340.72" x2="1925.16" y2="1523.26" gradientUnits="userSpaceOnUse">
<stop stop-color="#FF1CF7"/>
<stop offset="1" stop-color="#00F0FF"/>
</linearGradient>
<linearGradient id="paint23_linear_26_462" x1="477.618" y1="2300.26" x2="1899.82" y2="1565.97" gradientUnits="userSpaceOnUse">
<stop stop-color="#FF1CF7"/>
<stop offset="1" stop-color="#00F0FF"/>
</linearGradient>
<linearGradient id="paint24_linear_26_462" x1="430.704" y1="2259.6" x2="1871.9" y2="1608.55" gradientUnits="userSpaceOnUse">
<stop stop-color="#FF1CF7"/>
<stop offset="1" stop-color="#00F0FF"/>
</linearGradient>
<linearGradient id="paint25_linear_26_462" x1="386.048" y1="2218.86" x2="1841.46" y2="1650.85" gradientUnits="userSpaceOnUse">
<stop stop-color="#FF1CF7"/>
<stop offset="1" stop-color="#00F0FF"/>
</linearGradient>
<linearGradient id="paint26_linear_26_462" x1="343.628" y1="2178.17" x2="1808.59" y2="1692.74" gradientUnits="userSpaceOnUse">
<stop stop-color="#FF1CF7"/>
<stop offset="1" stop-color="#00F0FF"/>
</linearGradient>
<linearGradient id="paint27_linear_26_462" x1="303.414" y1="2137.66" x2="1773.36" y2="1734.09" gradientUnits="userSpaceOnUse">
<stop stop-color="#FF1CF7"/>
<stop offset="1" stop-color="#00F0FF"/>
</linearGradient>
<linearGradient id="paint28_linear_26_462" x1="265.37" y1="2097.45" x2="1735.86" y2="1774.79" gradientUnits="userSpaceOnUse">
<stop stop-color="#FF1CF7"/>
<stop offset="1" stop-color="#00F0FF"/>
</linearGradient>
<linearGradient id="paint29_linear_26_462" x1="229.456" y1="2057.66" x2="1696.18" y2="1814.74" gradientUnits="userSpaceOnUse">
<stop stop-color="#FF1CF7"/>
<stop offset="1" stop-color="#00F0FF"/>
</linearGradient>
<linearGradient id="paint30_linear_26_462" x1="195.621" y1="2018.41" x2="1654.42" y2="1853.83" gradientUnits="userSpaceOnUse">
<stop stop-color="#FF1CF7"/>
<stop offset="1" stop-color="#00F0FF"/>
</linearGradient>
<linearGradient id="paint31_linear_26_462" x1="163.812" y1="1979.81" x2="1610.66" y2="1892" gradientUnits="userSpaceOnUse">
<stop stop-color="#FF1CF7"/>
<stop offset="1" stop-color="#00F0FF"/>
</linearGradient>
<linearGradient id="paint32_linear_26_462" x1="133.967" y1="1941.98" x2="1565.01" y2="1929.15" gradientUnits="userSpaceOnUse">
<stop stop-color="#FF1CF7"/>
<stop offset="1" stop-color="#00F0FF"/>
</linearGradient>
<linearGradient id="paint33_linear_26_462" x1="106.02" y1="1905" x2="1517.54" y2="1965.23" gradientUnits="userSpaceOnUse">
<stop stop-color="#FF1CF7"/>
<stop offset="1" stop-color="#00F0FF"/>
</linearGradient>
<linearGradient id="paint34_linear_26_462" x1="79.8996" y1="1869" x2="1468.37" y2="2000.18" gradientUnits="userSpaceOnUse">
<stop stop-color="#FF1CF7"/>
<stop offset="1" stop-color="#00F0FF"/>
</linearGradient>
<linearGradient id="paint35_linear_26_462" x1="55.5303" y1="1834.04" x2="1417.56" y2="2033.95" gradientUnits="userSpaceOnUse">
<stop stop-color="#FF1CF7"/>
<stop offset="1" stop-color="#00F0FF"/>
</linearGradient>
<linearGradient id="paint36_linear_26_462" x1="32.8296" y1="1800.24" x2="1365.22" y2="2066.48" gradientUnits="userSpaceOnUse">
<stop stop-color="#FF1CF7"/>
<stop offset="1" stop-color="#00F0FF"/>
</linearGradient>
<linearGradient id="paint37_linear_26_462" x1="11.7138" y1="1767.66" x2="1311.43" y2="2097.73" gradientUnits="userSpaceOnUse">
<stop stop-color="#FF1CF7"/>
<stop offset="1" stop-color="#00F0FF"/>
</linearGradient>
<linearGradient id="paint38_linear_26_462" x1="-7.90558" y1="1736.4" x2="1256.26" y2="2127.67" gradientUnits="userSpaceOnUse">
<stop stop-color="#FF1CF7"/>
<stop offset="1" stop-color="#00F0FF"/>
</linearGradient>
<linearGradient id="paint39_linear_26_462" x1="-26.1222" y1="1706.51" x2="1199.8" y2="2156.26" gradientUnits="userSpaceOnUse">
<stop stop-color="#FF1CF7"/>
<stop offset="1" stop-color="#00F0FF"/>
</linearGradient>
<linearGradient id="paint40_linear_26_462" x1="-43.0319" y1="1678.06" x2="1142.12" y2="2183.48" gradientUnits="userSpaceOnUse">
<stop stop-color="#FF1CF7"/>
<stop offset="1" stop-color="#00F0FF"/>
</linearGradient>
<linearGradient id="paint41_linear_26_462" x1="-58.7318" y1="1651.12" x2="1083.31" y2="2209.27" gradientUnits="userSpaceOnUse">
<stop stop-color="#FF1CF7"/>
<stop offset="1" stop-color="#00F0FF"/>
</linearGradient>
<linearGradient id="paint42_linear_26_462" x1="-73.3224" y1="1625.73" x2="1023.43" y2="2233.63" gradientUnits="userSpaceOnUse">
<stop stop-color="#FF1CF7"/>
<stop offset="1" stop-color="#00F0FF"/>
</linearGradient>
<linearGradient id="paint43_linear_26_462" x1="-86.9071" y1="1601.94" x2="962.556" y2="2256.52" gradientUnits="userSpaceOnUse">
<stop stop-color="#FF1CF7"/>
<stop offset="1" stop-color="#00F0FF"/>
</linearGradient>
<linearGradient id="paint44_linear_26_462" x1="-99.5897" y1="1579.8" x2="900.768" y2="2277.9" gradientUnits="userSpaceOnUse">
<stop stop-color="#FF1CF7"/>
<stop offset="1" stop-color="#00F0FF"/>
</linearGradient>
<linearGradient id="paint45_linear_26_462" x1="-111.476" y1="1559.33" x2="838.135" y2="2297.76" gradientUnits="userSpaceOnUse">
<stop stop-color="#FF1CF7"/>
<stop offset="1" stop-color="#00F0FF"/>
</linearGradient>
<linearGradient id="paint46_linear_26_462" x1="-122.671" y1="1540.56" x2="774.734" y2="2316.07" gradientUnits="userSpaceOnUse">
<stop stop-color="#FF1CF7"/>
<stop offset="1" stop-color="#00F0FF"/>
</linearGradient>
<linearGradient id="paint47_linear_26_462" x1="-133.283" y1="1523.5" x2="710.639" y2="2332.8" gradientUnits="userSpaceOnUse">
<stop stop-color="#FF1CF7"/>
<stop offset="1" stop-color="#00F0FF"/>
</linearGradient>
<linearGradient id="paint48_linear_26_462" x1="-143.416" y1="1508.19" x2="645.928" y2="2347.93" gradientUnits="userSpaceOnUse">
<stop stop-color="#FF1CF7"/>
<stop offset="1" stop-color="#00F0FF"/>
</linearGradient>
<linearGradient id="paint49_linear_26_462" x1="-153.178" y1="1494.61" x2="580.683" y2="2361.42" gradientUnits="userSpaceOnUse">
<stop stop-color="#FF1CF7"/>
<stop offset="1" stop-color="#00F0FF"/>
</linearGradient>
<linearGradient id="paint50_linear_26_462" x1="-162.674" y1="1482.77" x2="514.984" y2="2373.27" gradientUnits="userSpaceOnUse">
<stop stop-color="#FF1CF7"/>
<stop offset="1" stop-color="#00F0FF"/>
</linearGradient>
<linearGradient id="paint51_linear_26_462" x1="-172.007" y1="1472.67" x2="448.921" y2="2383.44" gradientUnits="userSpaceOnUse">
<stop stop-color="#FF1CF7"/>
<stop offset="1" stop-color="#00F0FF"/>
</linearGradient>
<linearGradient id="paint52_linear_26_462" x1="-181.279" y1="1464.29" x2="382.582" y2="2391.93" gradientUnits="userSpaceOnUse">
<stop stop-color="#FF1CF7"/>
<stop offset="1" stop-color="#00F0FF"/>
</linearGradient>
<linearGradient id="paint53_linear_26_462" x1="-190.594" y1="1457.61" x2="316.06" y2="2398.71" gradientUnits="userSpaceOnUse">
<stop stop-color="#FF1CF7"/>
<stop offset="1" stop-color="#00F0FF"/>
</linearGradient>
<linearGradient id="paint54_linear_26_462" x1="-200.048" y1="1452.61" x2="249.452" y2="2403.79" gradientUnits="userSpaceOnUse">
<stop stop-color="#FF1CF7"/>
<stop offset="1" stop-color="#00F0FF"/>
</linearGradient>
<linearGradient id="paint55_linear_26_462" x1="-209.738" y1="1449.26" x2="182.857" y2="2407.15" gradientUnits="userSpaceOnUse">
<stop stop-color="#FF1CF7"/>
<stop offset="1" stop-color="#00F0FF"/>
</linearGradient>
<linearGradient id="paint56_linear_26_462" x1="-219.756" y1="1447.52" x2="116.38" y2="2408.81" gradientUnits="userSpaceOnUse">
<stop stop-color="#FF1CF7"/>
<stop offset="1" stop-color="#00F0FF"/>
</linearGradient>
<linearGradient id="paint57_linear_26_462" x1="-230.193" y1="1447.35" x2="50.1243" y2="2408.76" gradientUnits="userSpaceOnUse">
<stop stop-color="#FF1CF7"/>
<stop offset="1" stop-color="#00F0FF"/>
</linearGradient>
<linearGradient id="paint58_linear_26_462" x1="-241.136" y1="1448.71" x2="-15.8022" y2="2407.02" gradientUnits="userSpaceOnUse">
<stop stop-color="#FF1CF7"/>
<stop offset="1" stop-color="#00F0FF"/>
</linearGradient>
<linearGradient id="paint59_linear_26_462" x1="-252.666" y1="1451.54" x2="-81.2919" y2="2403.63" gradientUnits="userSpaceOnUse">
<stop stop-color="#FF1CF7"/>
<stop offset="1" stop-color="#00F0FF"/>
</linearGradient>
<linearGradient id="paint60_linear_26_462" x1="-264.863" y1="1455.79" x2="-146.236" y2="2398.6" gradientUnits="userSpaceOnUse">
<stop stop-color="#FF1CF7"/>
<stop offset="1" stop-color="#00F0FF"/>
</linearGradient>
<linearGradient id="paint61_linear_26_462" x1="-277.801" y1="1461.39" x2="-210.527" y2="2391.99" gradientUnits="userSpaceOnUse">
<stop stop-color="#FF1CF7"/>
<stop offset="1" stop-color="#00F0FF"/>
</linearGradient>
<linearGradient id="paint62_linear_26_462" x1="-291.552" y1="1468.3" x2="-274.06" y2="2383.84" gradientUnits="userSpaceOnUse">
<stop stop-color="#FF1CF7"/>
<stop offset="1" stop-color="#00F0FF"/>
</linearGradient>
<linearGradient id="paint63_linear_26_462" x1="-306.179" y1="1476.43" x2="-336.731" y2="2374.21" gradientUnits="userSpaceOnUse">
<stop stop-color="#FF1CF7"/>
<stop offset="1" stop-color="#00F0FF"/>
</linearGradient>
<linearGradient id="paint64_linear_26_462" x1="-321.744" y1="1485.71" x2="-398.441" y2="2363.18" gradientUnits="userSpaceOnUse">
<stop stop-color="#FF1CF7"/>
<stop offset="1" stop-color="#00F0FF"/>
</linearGradient>
<linearGradient id="paint65_linear_26_462" x1="-338.302" y1="1496.08" x2="-459.098" y2="2350.82" gradientUnits="userSpaceOnUse">
<stop stop-color="#FF1CF7"/>
<stop offset="1" stop-color="#00F0FF"/>
</linearGradient>
<linearGradient id="paint66_linear_26_462" x1="-355.903" y1="1507.45" x2="-518.611" y2="2337.21" gradientUnits="userSpaceOnUse">
<stop stop-color="#FF1CF7"/>
<stop offset="1" stop-color="#00F0FF"/>
</linearGradient>
</defs>
</svg>
