<svg width="1728" height="2079" viewBox="0 0 1728 2079" fill="none" xmlns="http://www.w3.org/2000/svg">
<path opacity="0.0144928" d="M2567.58 1653.98C2577.23 1657.52 2588.11 1654.11 2594.17 1645.65L2931.39 1174.49C2934.92 1169.55 2936.4 1163.44 2935.51 1157.46L2815.52 350.8C2814.83 346.125 2812.72 341.794 2809.48 338.393L2318.13 -178.003C2312.17 -184.26 2303.19 -186.57 2294.91 -183.974L1814.33 -33.4167C1806.05 -30.8211 1799.87 -23.7625 1798.36 -15.167L1673.82 694.179C1673 698.85 1673.63 703.646 1675.61 707.918L2017.61 1445.03C2020.14 1450.49 2024.72 1454.71 2030.34 1456.77L2567.58 1653.98Z" stroke="url(#paint0_linear_21_50)" stroke-opacity="0.3" stroke-width="4"/>
<path opacity="0.0289855" d="M2481.01 1664.49C2490.46 1668.52 2501.48 1665.7 2507.97 1657.59L2867.08 1208.68C2870.87 1203.94 2872.67 1197.91 2872.09 1191.89L2794.89 387.014C2794.44 382.301 2792.55 377.857 2789.49 374.288L2328.67 -162.477C2323.05 -169.029 2314.2 -171.803 2305.8 -169.652L1821.08 -45.5731C1812.68 -43.4217 1806.14 -36.7104 1804.19 -28.2176L1643.77 667.574C1642.7 672.201 1643.07 677.032 1644.84 681.409L1945.98 1428.96C1948.24 1434.55 1952.59 1439 1958.11 1441.36L2481.01 1664.49Z" stroke="url(#paint1_linear_21_50)" stroke-opacity="0.3" stroke-width="4"/>
<path opacity="0.0434783" d="M2394.72 1672.24C2403.94 1676.75 2415.08 1674.52 2421.97 1666.79L2801.6 1241.16C2805.64 1236.62 2807.76 1230.7 2807.49 1224.65L2772.54 423.893C2772.34 419.155 2770.68 414.609 2767.79 410.878L2338.24 -144.443C2332.96 -151.271 2324.27 -154.503 2315.77 -152.801L1828.32 -55.2373C1819.82 -53.5362 1812.95 -47.1915 1810.55 -38.8258L1615.31 641.546C1614 646.117 1614.12 650.97 1615.66 655.442L1875.85 1411.12C1877.81 1416.82 1881.94 1421.5 1887.34 1424.14L2394.72 1672.24Z" stroke="url(#paint2_linear_21_50)" stroke-opacity="0.3" stroke-width="4"/>
<path opacity="0.057971" d="M2308.86 1677.27C2317.82 1682.24 2329.03 1680.61 2336.32 1673.28L2735.05 1271.88C2739.33 1267.57 2741.76 1261.76 2741.81 1255.7L2748.45 461.338C2748.49 456.586 2747.07 451.95 2744.37 448.066L2346.71 -123.978C2341.78 -131.063 2333.28 -134.742 2324.71 -133.496L1835.9 -62.4076C1827.33 -61.1613 1820.15 -55.2013 1817.31 -46.9867L1588.43 616.176C1586.87 620.678 1586.74 625.541 1588.05 630.097L1807.28 1391.61C1808.95 1397.42 1812.84 1402.31 1818.11 1405.23L2308.86 1677.27Z" stroke="url(#paint3_linear_21_50)" stroke-opacity="0.3" stroke-width="4"/>
<path opacity="0.0724638" d="M2223.56 1679.63C2232.25 1685.05 2243.5 1684.02 2251.15 1677.11L2667.53 1300.8C2672.04 1296.73 2674.77 1291.05 2675.14 1285L2722.61 499.25C2722.89 494.496 2721.7 489.78 2719.19 485.751L2353.95 -101.163C2349.4 -108.487 2341.1 -112.602 2332.49 -111.814L1843.7 -67.0882C1835.09 -66.2999 1827.61 -60.7413 1824.35 -52.7018L1563.06 591.543C1561.26 595.964 1560.88 600.825 1561.96 605.454L1740.37 1370.53C1741.74 1376.43 1745.39 1381.52 1750.51 1384.72L2223.56 1679.63Z" stroke="url(#paint4_linear_21_50)" stroke-opacity="0.3" stroke-width="4"/>
<path opacity="0.0869565" d="M2138.97 1679.38C2147.35 1685.22 2158.62 1684.79 2166.6 1678.33L2599.14 1327.9C2603.87 1324.07 2606.9 1318.54 2607.58 1312.51L2694.99 537.528C2695.52 532.784 2694.57 527.999 2692.26 523.835L2359.86 -76.0885C2355.68 -83.6308 2347.62 -88.1709 2338.98 -87.8423L1851.58 -69.292C1842.94 -68.9633 1835.2 -63.8214 1831.52 -55.9802L1539.16 567.722C1537.13 572.051 1536.49 576.896 1537.33 581.588L1675.18 1348C1676.25 1353.96 1679.64 1359.24 1684.6 1362.7L2138.97 1679.38Z" stroke="url(#paint5_linear_21_50)" stroke-opacity="0.3" stroke-width="4"/>
<path opacity="0.101449" d="M2055.22 1676.57C2063.28 1682.83 2074.52 1683 2082.81 1676.99L2530 1353.12C2534.92 1349.56 2538.24 1344.19 2539.24 1338.2L2665.59 576.072C2666.37 571.35 2665.66 566.507 2663.56 562.217L2364.32 -48.85C2360.53 -56.5901 2352.71 -61.5413 2344.08 -61.6725L1859.4 -69.039C1850.77 -69.1702 1842.78 -64.4593 1838.7 -56.8388L1516.67 544.785C1514.41 549.009 1513.52 553.828 1514.13 558.571L1611.77 1324.1C1612.54 1330.12 1615.66 1335.58 1620.45 1339.3L2055.22 1676.57Z" stroke="url(#paint6_linear_21_50)" stroke-opacity="0.3" stroke-width="4"/>
<path opacity="0.115942" d="M1972.43 1671.29C1980.15 1677.93 1991.33 1678.7 1999.9 1673.17L2460.19 1376.47C2465.31 1373.17 2468.91 1367.98 2470.22 1362.04L2634.4 614.782C2635.44 610.094 2634.97 605.204 2633.08 600.797L2367.22 -19.5479C2363.82 -27.4646 2356.28 -32.8123 2347.68 -33.4019L1867.04 -66.3565C1858.45 -66.9461 1850.23 -62.6787 1845.76 -55.301L1495.55 522.803C1493.06 526.91 1491.92 531.69 1492.28 536.473L1550.22 1298.96C1550.68 1305.02 1553.53 1310.65 1558.13 1314.62L1972.43 1671.29Z" stroke="url(#paint7_linear_21_50)" stroke-opacity="0.3" stroke-width="4"/>
<path opacity="0.130435" d="M1890.74 1663.61C1898.1 1670.62 1909.18 1671.98 1918.01 1666.94L2389.83 1397.9C2395.12 1394.89 2399 1389.89 2400.61 1384.02L2601.45 653.558C2602.72 648.916 2602.51 643.991 2600.84 639.476L2368.46 11.7115C2365.47 3.63939 2358.23 -2.08876 2349.69 -3.13393L1874.38 -61.2792C1865.83 -62.3244 1857.42 -58.5116 1852.57 -51.3978L1475.72 501.839C1473.01 505.818 1471.62 510.547 1471.74 515.359L1490.57 1272.69C1490.72 1278.78 1493.28 1284.56 1497.69 1288.77L1890.74 1663.61Z" stroke="url(#paint8_linear_21_50)" stroke-opacity="0.3" stroke-width="4"/>
<path opacity="0.144928" d="M1810.26 1653.61C1817.23 1660.97 1828.19 1662.91 1837.24 1658.38L2319.02 1417.42C2324.47 1414.7 2328.61 1409.91 2330.53 1404.12L2566.72 692.301C2568.24 687.717 2568.28 682.768 2566.83 678.156L2367.96 44.8179C2365.39 36.6122 2358.46 30.5206 2349.99 29.0243L1881.27 -53.8478C1872.81 -55.3441 1864.22 -51.9956 1859.02 -45.166L1457.14 481.957C1454.21 485.796 1452.57 490.461 1452.44 495.292L1432.86 1245.41C1432.71 1251.51 1434.98 1257.43 1439.17 1261.86L1810.26 1653.61Z" stroke="url(#paint9_linear_21_50)" stroke-opacity="0.3" stroke-width="4"/>
<path opacity="0.15942" d="M1731.11 1641.38C1737.68 1649.07 1748.48 1651.58 1757.73 1647.57L2247.86 1435.02C2253.46 1432.59 2257.86 1428.03 2260.08 1422.34L2530.23 730.913C2532 726.4 2532.29 721.439 2531.07 716.739L2365.64 79.6556C2363.48 71.3384 2356.88 64.9018 2348.52 62.9602L1887.61 -44.1105C1879.25 -46.0521 1870.53 -43.1759 1864.97 -36.6499L1439.72 463.214C1436.58 466.902 1434.69 471.492 1434.32 476.329L1377.15 1217.23C1376.68 1223.33 1378.65 1229.37 1382.63 1234.02L1731.11 1641.38Z" stroke="url(#paint10_linear_21_50)" stroke-opacity="0.3" stroke-width="4"/>
<path opacity="0.173913" d="M1653.38 1627.03C1659.54 1635.01 1670.15 1638.08 1679.56 1634.6L2176.47 1450.7C2182.2 1448.58 2186.83 1444.25 2189.36 1438.67L2492.02 769.298C2494.02 764.866 2494.57 759.905 2493.58 755.128L2361.4 116.105C2359.66 107.698 2353.42 100.936 2345.19 98.5567L1893.28 -32.1221C1885.05 -34.5016 1876.21 -32.1042 1870.33 -25.9005L1423.41 445.664C1420.07 449.189 1417.93 453.691 1417.31 458.523L1323.45 1188.28C1322.67 1194.36 1324.34 1200.51 1328.09 1205.37L1653.38 1627.03Z" stroke="url(#paint11_linear_21_50)" stroke-opacity="0.3" stroke-width="4"/>
<path opacity="0.188406" d="M1577.18 1610.65C1582.92 1618.91 1593.3 1622.52 1602.85 1619.57L2104.93 1464.45C2110.77 1462.65 2115.64 1458.57 2118.46 1453.13L2452.09 807.362C2454.33 803.024 2455.13 798.075 2454.38 793.231L2355.19 154.045C2353.88 145.572 2347.99 138.504 2339.92 135.695L1898.16 -17.9412C1890.09 -20.7499 1881.15 -18.836 1874.96 -12.9721L1408.13 429.358C1404.59 432.709 1402.21 437.112 1401.34 441.927L1271.8 1158.67C1270.71 1164.71 1272.07 1170.96 1275.58 1176.02L1577.18 1610.65Z" stroke="url(#paint12_linear_21_50)" stroke-opacity="0.3" stroke-width="4"/>
<path opacity="0.202899" d="M1502.61 1592.34C1507.91 1600.86 1518.04 1604.99 1527.69 1602.59L2033.35 1476.31C2039.3 1474.82 2044.38 1471 2047.48 1465.7L2410.47 845.01C2412.95 840.778 2414.01 835.853 2413.5 830.953L2346.94 193.349C2346.05 184.831 2340.55 177.479 2332.65 174.251L1902.15 -1.63549C1894.25 -4.86321 1885.25 -3.43623 1878.78 2.0715L1393.81 414.339C1390.08 417.507 1387.47 421.798 1386.35 426.584L1222.22 1128.53C1220.82 1134.52 1221.86 1140.84 1225.12 1146.09L1502.61 1592.34Z" stroke="url(#paint13_linear_21_50)" stroke-opacity="0.3" stroke-width="4"/>
<path opacity="0.217391" d="M1429.76 1572.22C1434.6 1580.97 1444.45 1585.61 1454.17 1583.75L1961.84 1486.27C1967.86 1485.11 1973.15 1481.57 1976.53 1476.43L2367.21 882.154C2369.92 878.039 2371.23 873.149 2370.96 868.205L2336.59 233.889C2336.13 225.349 2331.02 217.735 2323.32 214.1L1905.15 16.7251C1897.45 13.0898 1888.41 14.0283 1881.66 19.1644L1380.37 400.653C1376.46 403.626 1373.62 407.793 1372.25 412.538L1174.71 1097.97C1173 1103.9 1173.73 1110.29 1176.73 1115.7L1429.76 1572.22Z" stroke="url(#paint14_linear_21_50)" stroke-opacity="0.3" stroke-width="4"/>
<path opacity="0.231884" d="M1358.69 1550.41C1363.07 1559.35 1372.62 1564.49 1382.38 1563.17L1890.48 1494.36C1896.57 1493.54 1902.05 1490.28 1905.71 1485.31L2322.34 918.702C2325.27 914.718 2326.84 909.876 2326.82 904.898L2324.1 275.534C2324.06 266.995 2319.37 259.142 2311.88 255.112L1907.05 37.0626C1899.56 33.0324 1890.52 33.4824 1883.52 38.2325L1367.75 388.333C1363.67 391.102 1360.59 395.133 1358.98 399.826L1129.29 1067.12C1127.27 1072.97 1127.68 1079.41 1130.41 1084.98L1358.69 1550.41Z" stroke="url(#paint15_linear_21_50)" stroke-opacity="0.3" stroke-width="4"/>
<path opacity="0.246377" d="M1289.49 1527.02C1293.41 1536.13 1302.61 1541.74 1312.38 1540.96L1819.38 1500.62C1825.51 1500.13 1831.18 1497.16 1835.09 1492.38L2275.91 954.572C2279.06 950.729 2280.88 945.948 2281.11 940.948L2309.43 318.153C2309.82 309.636 2305.54 301.567 2298.29 297.156L1907.76 59.2964C1900.51 54.8853 1891.48 54.848 1884.26 59.1995L1355.86 377.415C1351.62 379.969 1348.32 383.852 1346.46 388.48L1085.95 1036.11C1083.63 1041.86 1083.71 1048.33 1086.17 1054.05L1289.49 1527.02Z" stroke="url(#paint16_linear_21_50)" stroke-opacity="0.3" stroke-width="4"/>
<path opacity="0.26087" d="M1222.22 1502.17C1225.66 1511.42 1234.51 1517.48 1244.26 1517.25L1244.32 1519.26L1244.26 1517.25L1748.63 1505.06C1754.79 1504.91 1760.62 1502.25 1764.79 1497.67L2227.96 989.679C2231.32 985.989 2233.4 981.282 2233.88 976.272L2292.54 361.611C2293.35 353.14 2289.5 344.879 2282.51 340.102L1907.19 83.3404C1900.21 78.5634 1891.22 78.0419 1883.79 81.9829L1344.62 367.925C1340.23 370.256 1336.71 373.979 1334.6 378.53L1044.68 1005.04C1042.07 1010.68 1041.82 1017.17 1044 1023.02L1222.22 1502.17Z" stroke="url(#paint17_linear_21_50)" stroke-opacity="0.3" stroke-width="4"/>
<path opacity="0.275362" d="M1156.94 1475.98C1159.9 1485.36 1168.38 1491.84 1178.07 1492.14L1678.31 1507.74C1684.48 1507.93 1690.46 1505.58 1694.87 1501.22L2178.54 1023.94C2182.11 1020.42 2184.44 1015.8 2185.17 1010.79L2273.41 405.775C2274.63 397.371 2271.22 388.942 2264.52 383.815L1905.27 109.104C1898.56 103.977 1889.64 102.976 1882.03 106.496L1333.96 359.889C1329.42 361.987 1325.7 365.538 1323.35 369.999L1005.47 974.046C1002.57 979.562 1001.99 986.044 1003.88 992.015L1156.94 1475.98Z" stroke="url(#paint18_linear_21_50)" stroke-opacity="0.3" stroke-width="4"/>
<path opacity="0.289855" d="M1093.7 1448.58C1096.18 1458.05 1104.26 1464.93 1113.87 1465.77L1608.52 1508.68C1614.68 1509.21 1620.79 1507.19 1625.44 1503.06L2127.71 1057.29C2131.48 1053.94 2134.06 1049.42 2135.05 1044.43L2252.02 450.511C2253.66 442.196 2250.69 433.623 2244.28 428.163L1901.91 136.495C1895.5 131.035 1886.67 129.56 1878.9 132.65L1323.8 353.325C1319.13 355.181 1315.2 358.549 1312.61 362.909L968.295 943.236C965.107 948.61 964.206 955.075 965.8 961.149L1093.7 1448.58Z" stroke="url(#paint19_linear_21_50)" stroke-opacity="0.3" stroke-width="4"/>
<path opacity="0.304348" d="M1032.55 1420.11C1034.55 1429.64 1042.2 1436.89 1051.7 1438.25L1539.34 1507.94C1545.48 1508.82 1551.7 1507.12 1556.58 1503.23L2075.54 1089.65C2079.5 1086.49 2082.32 1082.08 2083.56 1077.11L2228.37 495.683C2230.41 487.478 2227.89 478.787 2221.8 473.012L1897.04 165.415C1890.94 159.64 1882.24 157.699 1874.33 160.35L1314.04 348.249C1309.26 349.855 1305.13 353.029 1302.31 357.274L933.133 912.727C929.665 917.945 928.437 924.375 929.731 930.539L1032.55 1420.11Z" stroke="url(#paint20_linear_21_50)" stroke-opacity="0.3" stroke-width="4"/>
<path opacity="0.318841" d="M973.511 1390.68C975.032 1400.25 982.253 1407.85 991.612 1409.72L1470.85 1505.57C1476.95 1506.78 1483.27 1505.42 1488.36 1501.79L2022.07 1120.95C2026.22 1117.98 2029.29 1113.7 2030.78 1108.77L2202.45 541.159C2204.89 533.084 2202.82 524.3 2197.05 518.229L1890.6 195.765C1884.83 189.693 1876.27 187.293 1868.25 189.501L1304.63 344.671C1299.73 346.019 1295.42 348.986 1292.37 353.105L899.946 882.632C896.206 887.679 894.651 894.058 895.641 900.295L973.511 1390.68Z" stroke="url(#paint21_linear_21_50)" stroke-opacity="0.3" stroke-width="4"/>
<path opacity="0.333333" d="M916.627 1360.42C917.668 1370.01 924.439 1377.93 933.63 1380.31L1403.13 1501.61C1409.16 1503.17 1415.57 1502.15 1420.85 1498.79L1967.39 1151.12C1971.72 1148.37 1975.02 1144.22 1976.76 1139.34L2174.26 586.805C2177.1 578.881 2175.48 570.029 2170.06 563.68L1882.54 227.44C1877.11 221.091 1868.72 218.244 1860.61 220.002L1295.46 342.597C1290.47 343.679 1285.98 346.43 1282.7 350.41L868.695 853.06C864.691 857.922 862.812 864.233 863.494 870.528L916.627 1360.42Z" stroke="url(#paint22_linear_21_50)" stroke-opacity="0.3" stroke-width="4"/>
<path opacity="0.347826" d="M861.915 1329.48C862.478 1339.06 868.786 1347.27 877.783 1350.13L1336.26 1496.14C1342.21 1498.03 1348.67 1497.36 1354.15 1494.28L1911.56 1180.11C1916.05 1177.58 1919.58 1173.58 1921.57 1168.77L2143.83 632.489C2147.04 624.737 2145.89 615.841 2140.81 609.234L1872.79 260.338C1867.72 253.731 1859.52 250.446 1851.35 251.751L1286.47 342.028C1281.4 342.838 1276.74 345.362 1273.25 349.191L839.334 824.12C835.075 828.782 832.874 835.008 833.247 841.346L861.915 1329.48Z" stroke="url(#paint23_linear_21_50)" stroke-opacity="0.3" stroke-width="4"/>
<path opacity="0.362319" d="M809.387 1297.97C809.476 1307.51 815.31 1315.99 824.087 1319.33L1270.29 1489.2C1276.15 1491.43 1282.66 1491.11 1288.3 1488.32L1854.65 1207.86C1859.3 1205.56 1863.05 1201.73 1865.29 1196.99L2111.17 678.084C2114.75 670.521 2114.05 661.606 2109.34 654.762L1861.32 294.349C1856.61 287.505 1848.62 283.796 1840.42 284.646L1277.58 342.962C1272.44 343.495 1267.62 345.78 1263.91 349.446L811.811 795.914C807.306 800.362 804.788 806.487 804.848 812.851L809.387 1297.97Z" stroke="url(#paint24_linear_21_50)" stroke-opacity="0.3" stroke-width="4"/>
<path opacity="0.376812" d="M759.05 1266.03C758.672 1275.51 764.021 1284.22 772.553 1288.03L1205.31 1480.88C1211.04 1483.43 1217.58 1483.47 1223.38 1480.97L1796.73 1234.32C1801.53 1232.26 1805.5 1228.6 1807.99 1223.96L2076.31 723.46C2080.25 716.106 2080.01 707.196 2075.67 700.136L1848.08 329.367C1843.75 322.306 1835.99 318.186 1827.78 318.58L1268.7 345.392C1263.51 345.641 1258.54 347.679 1254.63 351.169L786.069 768.541C781.33 772.763 778.499 778.769 778.245 785.144L759.05 1266.03Z" stroke="url(#paint25_linear_21_50)" stroke-opacity="0.3" stroke-width="4"/>
<path opacity="0.391304" d="M710.904 1233.78C710.064 1243.18 714.922 1252.1 723.186 1256.35L1141.37 1471.22C1146.97 1474.1 1153.51 1474.49 1159.45 1472.31L1737.9 1259.44C1742.83 1257.63 1747.01 1254.16 1749.74 1249.62L2039.28 768.493C2043.57 761.366 2043.78 752.486 2039.83 745.23L1833.04 365.281C1829.09 358.025 1821.59 353.508 1813.39 353.446L1259.76 349.305C1254.53 349.266 1249.43 351.047 1245.31 354.351L762.048 742.098C757.084 746.081 753.947 751.952 753.378 758.321L710.904 1233.78Z" stroke="url(#paint26_linear_21_50)" stroke-opacity="0.3" stroke-width="4"/>
<path opacity="0.405797" d="M664.94 1201.36C663.648 1210.65 668.006 1219.76 675.981 1224.43L1078.52 1460.31C1083.97 1463.5 1090.51 1464.25 1096.57 1462.39L1678.22 1283.18C1683.27 1281.63 1687.65 1278.36 1690.62 1273.93L2000.12 813.063C2004.74 806.179 2005.4 797.352 2001.85 789.923L1816.18 401.981C1812.62 394.551 1805.4 389.652 1797.23 389.138L1250.67 354.688C1245.42 354.357 1240.2 355.872 1235.9 358.977L739.678 716.676C734.503 720.407 731.065 726.126 730.182 732.475L664.94 1201.36Z" stroke="url(#paint27_linear_21_50)" stroke-opacity="0.3" stroke-width="4"/>
<path opacity="0.42029" d="M621.144 1168.89C619.407 1178.05 623.262 1187.31 630.926 1192.39L1016.83 1448.21C1022.11 1451.71 1028.61 1452.83 1034.79 1451.28L1617.77 1305.5C1622.93 1304.21 1627.5 1301.16 1630.71 1296.86L1958.89 857.051C1963.83 850.426 1964.93 841.676 1961.78 834.094L1797.47 439.356C1794.31 431.774 1787.38 426.51 1779.28 425.546L1241.38 361.518C1236.12 360.893 1230.79 362.133 1226.31 365.029L718.889 692.362C713.516 695.828 709.785 701.38 708.588 707.691L621.144 1168.89Z" stroke="url(#paint28_linear_21_50)" stroke-opacity="0.3" stroke-width="4"/>
<path opacity="0.434783" d="M579.493 1136.5C577.323 1145.5 580.671 1154.89 588.004 1160.36L956.337 1435.01C961.431 1438.81 967.886 1440.28 974.151 1439.07L1556.65 1326.37C1561.9 1325.35 1566.65 1322.52 1570.09 1318.37L1915.63 900.341C1920.88 893.992 1922.42 885.341 1919.67 877.628L1776.9 477.296C1774.15 469.583 1767.52 463.971 1759.51 462.562L1231.79 369.774C1226.55 368.852 1221.13 369.811 1216.47 372.486L699.607 669.237C694.048 672.428 690.032 677.798 688.524 684.055L579.493 1136.5Z" stroke="url(#paint29_linear_21_50)" stroke-opacity="0.3" stroke-width="4"/>
<path opacity="0.449275" d="M539.958 1104.3C537.364 1113.13 540.204 1122.62 547.188 1128.46L897.089 1420.78C901.981 1424.87 908.366 1426.69 914.704 1425.82L1494.93 1345.76C1500.26 1345.02 1505.18 1342.43 1508.84 1338.43L1870.41 942.826C1875.95 936.765 1877.92 928.236 1875.58 920.414L1754.46 515.689C1752.12 507.868 1745.82 501.926 1737.92 500.078L1221.85 379.428C1216.63 378.208 1211.13 378.878 1206.31 381.322L681.748 647.379C676.017 650.285 671.726 655.456 669.91 661.644L539.958 1104.3Z" stroke="url(#paint30_linear_21_50)" stroke-opacity="0.3" stroke-width="4"/>
<path opacity="0.463768" d="M502.505 1072.41C499.5 1081.06 501.83 1090.62 508.448 1096.8L839.126 1405.6C843.799 1409.96 850.094 1412.14 856.488 1411.61L1432.7 1363.65C1438.09 1363.2 1443.18 1360.85 1447.05 1357.01L1823.3 984.397C1829.11 978.64 1831.49 970.253 1829.57 962.344L1730.15 554.427C1728.22 546.519 1722.27 540.266 1714.5 537.986L1211.48 390.448C1206.3 388.93 1200.74 389.305 1195.77 391.509L665.231 626.858C659.344 629.47 654.788 634.428 652.666 640.531L502.505 1072.41Z" stroke="url(#paint31_linear_21_50)" stroke-opacity="0.3" stroke-width="4"/>
<path opacity="0.478261" d="M467.092 1040.96C463.688 1049.39 465.51 1059 471.746 1065.5L782.481 1389.54C786.92 1394.17 793.107 1396.7 799.537 1396.51L1370.04 1380.01C1375.49 1379.86 1380.72 1377.76 1384.8 1374.1L1774.35 1024.95C1780.42 1019.51 1783.22 1011.29 1781.7 1003.32L1703.98 593.401C1702.46 585.427 1696.87 578.882 1689.25 576.18L1200.61 402.8C1195.5 400.984 1189.88 401.06 1184.78 403.013L649.968 607.743C643.941 610.05 639.13 614.781 636.707 620.783L467.092 1040.96Z" stroke="url(#paint32_linear_21_50)" stroke-opacity="0.3" stroke-width="4"/>
<path opacity="0.492754" d="M433.671 1010.05C429.881 1018.26 431.196 1027.88 437.036 1034.69L727.184 1372.7C731.374 1377.58 737.433 1380.45 743.881 1380.61L1307.05 1394.85C1312.52 1394.99 1317.89 1393.16 1322.17 1389.69L1723.66 1064.4C1729.97 1059.29 1733.16 1051.25 1732.07 1043.23L1675.95 632.503C1674.85 624.485 1669.63 617.669 1662.19 614.555L1189.19 416.446C1184.15 414.334 1178.5 414.106 1173.28 415.801L635.87 590.093C629.718 592.088 624.664 596.578 621.945 602.464L433.671 1010.05Z" stroke="url(#paint33_linear_21_50)" stroke-opacity="0.3" stroke-width="4"/>
<path opacity="0.507246" d="M402.187 979.793C398.026 987.752 398.838 997.373 404.269 1004.45L673.26 1355.14C677.188 1360.26 683.1 1363.48 689.546 1363.99L1243.8 1408.14C1249.29 1408.58 1254.77 1407.02 1259.24 1403.76L1671.29 1102.65C1677.83 1097.87 1681.41 1090.04 1680.73 1082L1646.08 671.627C1645.4 663.587 1640.56 656.52 1633.33 653.005L1177.14 431.344C1172.19 428.939 1166.53 428.403 1161.2 429.832L622.843 573.963C616.582 575.639 611.298 579.875 608.289 585.63L402.187 979.793Z" stroke="url(#paint34_linear_21_50)" stroke-opacity="0.3" stroke-width="4"/>
<path opacity="0.521739" d="M372.583 950.291C368.064 957.988 368.378 967.578 373.388 974.911L620.731 1336.97C624.382 1342.31 630.129 1345.85 636.554 1346.72L1180.38 1419.89C1185.88 1420.63 1191.46 1419.36 1196.11 1416.3L1617.34 1139.61C1624.08 1135.18 1628.04 1127.57 1627.78 1119.53L1614.4 710.671C1614.14 702.63 1609.69 695.333 1602.68 691.43L1164.41 447.45C1159.57 444.757 1153.92 443.909 1148.48 445.065L610.793 559.403C604.44 560.754 598.939 564.723 595.646 570.332L372.583 950.291Z" stroke="url(#paint35_linear_21_50)" stroke-opacity="0.3" stroke-width="4"/>
<path opacity="0.536232" d="M344.791 921.645C339.931 929.064 339.752 938.598 344.331 946.16L569.611 1318.25C572.973 1323.8 578.536 1327.66 584.92 1328.88L1116.88 1430.1C1122.36 1431.15 1128.04 1430.16 1132.86 1427.33L1561.9 1175.21C1568.83 1171.14 1573.15 1163.76 1573.3 1155.74L1580.93 749.532C1581.08 741.512 1577.04 734.008 1570.27 729.729L1150.94 464.716C1146.23 461.739 1140.59 460.58 1135.08 461.456L599.62 546.455C593.193 547.476 587.489 551.167 583.92 556.616L344.791 921.645Z" stroke="url(#paint36_linear_21_50)" stroke-opacity="0.3" stroke-width="4"/>
<path opacity="0.550725" d="M318.745 893.95C313.559 901.076 312.893 910.531 317.031 918.297L519.911 1299.07C522.973 1304.82 528.334 1308.99 534.659 1310.56L1053.38 1438.78C1058.83 1440.12 1064.59 1439.43 1069.57 1436.83L1505.06 1209.37C1512.15 1205.66 1516.82 1198.54 1517.38 1190.56L1545.7 788.112C1546.26 780.134 1542.64 772.444 1536.13 767.806L1136.69 483.094C1132.12 479.838 1126.52 478.367 1120.93 478.957L589.229 535.158C582.745 535.843 576.852 539.246 573.014 544.52L318.745 893.95Z" stroke="url(#paint37_linear_21_50)" stroke-opacity="0.3" stroke-width="4"/>
<path opacity="0.565217" d="M294.368 867.295C288.873 874.116 287.729 883.467 291.418 891.412L471.639 1279.52C474.39 1285.44 479.53 1289.92 485.777 1291.82L989.974 1445.93C995.371 1447.58 1001.19 1447.19 1006.31 1444.83L1446.91 1242.02C1454.15 1238.68 1459.15 1231.83 1460.12 1223.92L1508.76 826.316C1509.73 818.4 1506.53 810.548 1500.3 805.565L1121.59 502.529C1117.18 499.003 1111.63 497.22 1105.99 497.52L579.517 525.541C572.995 525.888 566.927 528.992 562.829 534.079L294.368 867.295Z" stroke="url(#paint38_linear_21_50)" stroke-opacity="0.3" stroke-width="4"/>
<path opacity="0.57971" d="M271.583 841.767C265.794 848.27 264.181 857.494 267.415 865.592L424.796 1259.67C427.225 1265.75 432.129 1270.52 438.278 1272.77L926.733 1451.57C932.063 1453.53 937.923 1453.44 943.186 1451.33L1387.56 1273.1C1394.93 1270.14 1400.25 1263.58 1401.62 1255.75L1470.15 864.052C1471.52 856.219 1468.74 848.227 1462.82 842.917L1105.6 522.968C1101.37 519.179 1095.89 517.086 1090.22 517.092L570.385 517.631C563.841 517.638 557.615 520.434 553.266 525.319L271.583 841.767Z" stroke="url(#paint39_linear_21_50)" stroke-opacity="0.3" stroke-width="4"/>
<path opacity="0.594203" d="M250.304 817.443C244.24 823.616 242.166 832.69 244.94 840.916L379.378 1239.61C381.477 1245.83 386.127 1250.87 392.159 1253.46L863.741 1455.73C868.987 1457.98 874.875 1458.2 880.262 1456.35L1327.1 1302.57C1334.59 1299.99 1340.21 1293.73 1341.97 1286L1429.9 901.23C1431.67 893.5 1429.33 885.391 1423.72 879.772L1088.68 544.353C1084.64 540.31 1079.25 537.91 1073.55 537.618L561.728 511.445C555.181 511.11 548.813 513.591 544.223 518.262L250.304 817.443Z" stroke="url(#paint40_linear_21_50)" stroke-opacity="0.3" stroke-width="4"/>
<path opacity="0.608696" d="M230.448 794.399C224.125 800.231 221.602 809.133 223.912 817.461L335.38 1219.41C337.14 1225.76 341.522 1231.06 347.418 1233.98L801.078 1458.43C806.224 1460.98 812.124 1461.51 817.621 1459.92L1265.65 1330.36C1273.22 1328.17 1279.13 1322.22 1281.29 1314.62L1388.09 937.765C1390.24 930.159 1388.35 921.957 1383.06 916.047L1070.78 566.626C1066.95 562.339 1061.67 559.635 1055.97 559.045L553.448 506.998C546.916 506.321 540.42 508.478 535.601 512.924L230.448 794.399Z" stroke="url(#paint41_linear_21_50)" stroke-opacity="0.3" stroke-width="4"/>
<path opacity="0.623188" d="M211.923 772.702C205.36 778.182 202.4 786.892 204.242 795.295L292.79 1199.16C294.204 1205.62 298.303 1211.17 304.046 1214.41L738.822 1459.7C743.85 1462.54 749.746 1463.38 755.34 1462.06L1203.3 1356.44C1210.95 1354.64 1217.13 1349.02 1219.66 1341.56L1344.75 973.577C1347.29 966.112 1345.84 957.842 1340.9 951.661L1051.88 589.727C1048.27 585.207 1043.11 582.204 1037.42 581.313L545.441 504.294C538.942 503.277 532.336 505.104 527.297 509.313L211.923 772.702Z" stroke="url(#paint42_linear_21_50)" stroke-opacity="0.3" stroke-width="4"/>
<path opacity="0.637681" d="M194.635 752.412C187.851 757.533 184.465 766.028 185.84 774.482L251.591 1178.94C252.654 1185.48 256.455 1191.26 262.027 1194.81L677.046 1459.57C681.941 1462.7 687.815 1463.85 693.494 1462.81L1140.17 1380.78C1147.87 1379.36 1154.3 1374.09 1157.21 1366.78L1299.96 1008.59C1302.88 1001.28 1301.87 992.969 1297.29 986.539L1031.94 613.594C1028.56 608.852 1023.54 605.556 1017.88 604.364L537.605 503.336C531.158 501.98 524.458 503.471 519.211 507.432L194.635 752.412Z" stroke="url(#paint43_linear_21_50)" stroke-opacity="0.3" stroke-width="4"/>
<path opacity="0.652174" d="M178.49 733.588C171.503 738.34 167.706 746.6 168.612 755.077L211.766 1158.81C212.472 1165.42 215.962 1171.41 221.345 1175.27L615.825 1458.09C620.569 1461.49 626.406 1462.96 632.156 1462.19L1076.37 1403.34C1084.1 1402.32 1090.76 1397.39 1094.04 1390.27L1253.78 1042.72C1257.06 1035.6 1256.5 1027.27 1252.29 1020.61L1010.92 638.163C1007.8 633.213 1002.93 629.63 997.31 628.138L529.842 504.118C523.462 502.425 516.687 503.577 511.244 507.279L178.49 733.588Z" stroke="url(#paint44_linear_21_50)" stroke-opacity="0.3" stroke-width="4"/>
<path opacity="0.666667" d="M163.388 716.276C156.217 720.652 152.023 728.659 152.463 737.134L173.289 1138.86C173.634 1145.51 176.801 1151.7 181.979 1155.86L555.225 1455.28C559.804 1458.95 565.587 1460.73 571.394 1460.26L1012 1424.11C1019.75 1423.47 1026.62 1418.91 1030.25 1411.98L1206.28 1075.92C1209.91 1069 1209.79 1060.66 1205.97 1053.8L988.807 663.371C985.945 658.225 981.253 654.362 975.688 652.572L522.048 506.628C515.755 504.604 508.92 505.411 503.294 508.845L163.388 716.276Z" stroke="url(#paint45_linear_21_50)" stroke-opacity="0.3" stroke-width="4"/>
<path opacity="0.681159" d="M149.231 700.522C141.896 704.516 137.321 712.249 137.297 720.695L136.135 1119.15C136.116 1125.82 138.949 1132.2 143.906 1136.64L495.317 1451.2C499.715 1455.14 505.428 1457.23 511.279 1457.04L947.174 1443.07C954.917 1442.82 961.986 1438.62 965.955 1431.91L1157.52 1108.11C1161.49 1101.4 1161.82 1093.1 1158.39 1086.05L965.574 689.152C962.986 683.825 958.482 679.692 952.99 677.605L514.13 510.851C507.939 508.498 501.062 508.96 495.265 512.116L149.231 700.522Z" stroke="url(#paint46_linear_21_50)" stroke-opacity="0.3" stroke-width="4"/>
<path opacity="0.695652" d="M135.917 686.36C128.437 689.966 123.497 697.408 123.012 705.799L100.272 1099.75C99.8863 1106.43 102.375 1112.97 107.095 1117.68L436.163 1445.9C440.365 1450.09 445.991 1452.49 451.872 1452.59L882.001 1460.21C889.721 1460.34 896.966 1456.52 901.264 1450.05L1107.58 1139.24C1111.88 1132.77 1112.65 1124.51 1109.63 1117.3L941.201 715.441C938.898 709.947 934.598 705.552 929.194 703.172L505.987 516.762C499.916 514.088 493.014 514.2 487.06 517.071L135.917 686.36Z" stroke="url(#paint47_linear_21_50)" stroke-opacity="0.3" stroke-width="4"/>
<path opacity="0.710145" d="M123.342 673.821C115.738 677.035 110.45 684.168 109.512 692.479L65.6656 1080.73C64.913 1087.4 67.0475 1094.08 71.5165 1099.04L377.824 1439.43C381.816 1443.87 387.341 1446.57 393.238 1446.97L816.592 1475.53C824.269 1476.05 831.671 1472.61 836.284 1466.39L1056.54 1169.25C1061.15 1163.03 1062.36 1154.85 1059.75 1147.5L915.675 742.172C913.668 736.526 909.585 731.88 904.285 729.211L497.528 524.334C491.593 521.345 484.683 521.108 478.586 523.685L123.342 673.821Z" stroke="url(#paint48_linear_21_50)" stroke-opacity="0.3" stroke-width="4"/>
<path opacity="0.724638" d="M111.405 662.928C103.696 665.747 98.0793 672.554 96.6934 680.759L32.2787 1062.16C31.1594 1068.79 32.9318 1075.59 37.1357 1080.8L320.359 1431.84C324.127 1436.51 329.534 1439.51 335.433 1440.21L751.053 1489.04C758.669 1489.94 766.207 1486.89 771.123 1480.93L1004.47 1198.1C1009.39 1192.14 1011.02 1184.07 1008.83 1176.61L888.984 769.279L890.885 768.707L888.984 769.279C887.283 763.498 883.432 758.611 878.249 755.656L488.659 533.533C482.876 530.236 475.976 529.65 469.749 531.926L111.405 662.928Z" stroke="url(#paint49_linear_21_50)" stroke-opacity="0.3" stroke-width="4"/>
<path opacity="0.73913" d="M100 653.7C92.2066 656.12 86.2807 662.586 84.4561 670.66L0.0701141 1044.09C-1.41464 1050.66 -0.0112944 1057.56 3.91426 1063L263.82 1423.2C267.351 1428.09 272.626 1431.38 278.514 1432.37L685.492 1500.75C693.027 1502.02 700.682 1499.37 705.885 1493.69L951.461 1225.74C956.664 1220.07 958.724 1212.12 956.949 1204.56L861.119 796.696C859.733 790.795 856.128 785.679 851.077 782.444L479.292 544.321C473.676 540.725 466.801 539.789 460.459 541.759L100 653.7Z" stroke="url(#paint50_linear_21_50)" stroke-opacity="0.3" stroke-width="4"/>
<path opacity="0.753623" d="M89.0261 646.145C81.1683 648.166 74.953 654.275 72.6996 662.193L-31.0026 1026.58C-32.8503 1033.07 -31.8222 1040.06 -28.1872 1045.71L208.259 1413.55C211.54 1418.66 216.668 1422.24 222.531 1423.53L620.013 1510.68C627.452 1512.31 635.202 1510.06 640.676 1504.68L897.586 1252.14C903.06 1246.76 905.536 1238.96 904.186 1231.34L832.078 824.357C831.014 818.354 827.667 813.02 822.763 809.51L469.339 556.655C463.906 552.768 457.074 551.485 450.631 553.142L89.0261 646.145Z" stroke="url(#paint51_linear_21_50)" stroke-opacity="0.3" stroke-width="4"/>
<path opacity="0.768116" d="M78.3791 640.267C70.4781 641.889 63.9945 647.628 61.3235 655.366L-60.9853 1009.68C-63.1925 1016.08 -62.5445 1023.13 -59.2116 1028.98L153.723 1402.98C156.743 1408.28 161.709 1412.15 167.534 1413.73L554.721 1518.84C562.045 1520.83 569.87 1518.98 575.598 1513.91L842.932 1277.26C848.66 1272.19 851.542 1264.56 850.619 1256.9L801.859 852.195C801.126 846.107 798.049 840.567 793.304 836.791L458.719 570.485C453.482 566.316 446.71 564.688 440.181 566.028L78.3791 640.267Z" stroke="url(#paint52_linear_21_50)" stroke-opacity="0.3" stroke-width="4"/>
<path opacity="0.782609" d="M67.9562 636.066C60.0325 637.288 53.3028 642.645 50.2271 650.178L-89.9276 993.457C-92.4896 999.732 -92.2257 1006.82 -89.2055 1012.86L100.254 1391.53C103.001 1397.02 107.792 1401.16 113.565 1403.04L489.714 1525.29C496.907 1527.62 504.786 1526.18 510.751 1521.43L787.582 1301.07C793.547 1296.33 796.823 1288.89 796.328 1281.22L770.465 880.147C770.068 873.991 767.274 868.259 762.702 864.222L447.351 585.758C442.324 581.319 435.628 579.349 429.028 580.367L67.9562 636.066Z" stroke="url(#paint53_linear_21_50)" stroke-opacity="0.3" stroke-width="4"/>
<path opacity="0.797101" d="M57.6565 633.532C49.7307 634.357 42.7777 639.32 39.3115 646.626L-117.88 977.945C-120.791 984.08 -120.914 991.189 -118.216 997.392L47.8916 1379.28C50.3553 1384.95 54.9565 1389.36 60.6656 1391.53L425.092 1530.04C432.136 1532.71 440.048 1531.68 446.231 1527.26L731.619 1323.56C737.803 1319.15 741.461 1311.93 741.393 1304.27L737.902 908.147C737.847 901.942 735.347 896.032 730.959 891.741L435.158 602.417C430.354 597.718 423.751 595.41 417.094 596.103L57.6565 633.532Z" stroke="url(#paint54_linear_21_50)" stroke-opacity="0.3" stroke-width="4"/>
<path opacity="0.811594" d="M47.3815 632.65C39.4743 633.081 32.3215 637.64 28.4806 644.695L-144.895 963.192C-148.148 969.168 -148.659 976.275 -146.293 982.626L-3.32862 1366.31C-1.15857 1372.13 3.24028 1376.8 8.87213 1379.26L360.949 1533.14C367.83 1536.14 375.753 1535.51 382.136 1531.44L675.13 1344.71C681.513 1340.65 685.54 1333.66 685.897 1326.04L704.18 936.133C704.473 929.896 702.275 923.822 698.086 919.285L422.069 620.401C417.5 615.454 411.005 612.812 404.308 613.177L47.3815 632.65Z" stroke="url(#paint55_linear_21_50)" stroke-opacity="0.3" stroke-width="4"/>
<path opacity="0.826087" d="M37.0341 633.399C29.1658 633.441 21.8376 637.586 17.6391 644.371L-171.026 949.239C-174.613 955.036 -175.513 962.119 -173.486 968.601L-53.3751 1352.67C-51.5083 1358.64 -47.3246 1363.56 -41.7825 1366.31L297.378 1534.64C304.08 1537.96 311.993 1537.73 318.556 1534.02L618.2 1364.51C624.763 1360.8 629.142 1354.08 629.921 1346.52L669.312 964.042C669.956 957.793 668.072 951.568 664.092 946.794L408.017 639.644C403.695 634.46 397.324 631.49 390.601 631.526L37.0341 633.399Z" stroke="url(#paint56_linear_21_50)" stroke-opacity="0.3" stroke-width="4"/>
<path opacity="0.84058" d="M26.5169 635.754C18.7079 635.411 11.2292 639.137 6.69158 645.629L-196.331 936.123C-200.244 941.721 -201.532 948.759 -199.851 955.354L-102.223 1338.44C-100.668 1344.54 -96.7122 1349.71 -91.2722 1352.74L234.464 1534.59C240.973 1538.22 248.855 1538.39 255.577 1535.05L560.91 1382.95C567.632 1379.6 572.349 1373.16 573.543 1365.69L633.312 991.814C634.311 985.57 632.749 979.21 628.99 974.207L392.934 660.077C388.87 654.669 382.638 651.377 375.905 651.082L26.5169 635.754Z" stroke="url(#paint57_linear_21_50)" stroke-opacity="0.3" stroke-width="4"/>
<path opacity="0.855072" d="M15.7398 639.681C8.01011 638.961 0.406502 642.26 -4.4504 648.442L-220.866 923.877C-225.094 929.258 -226.769 936.229 -225.441 942.918L-149.847 1323.69C-148.613 1329.91 -144.896 1335.31 -139.571 1338.63L172.294 1533.05C178.596 1536.98 186.426 1537.55 193.287 1534.57L503.347 1400.04C510.208 1397.06 515.243 1390.91 516.846 1383.55L596.202 1019.39C597.557 1013.17 596.327 1006.69 592.799 1001.47L376.765 681.627C372.97 676.009 366.892 672.401 360.164 671.774L15.7398 639.681Z" stroke="url(#paint58_linear_21_50)" stroke-opacity="0.3" stroke-width="4"/>
<path opacity="0.869565" d="M4.61195 645.144C-3.01884 644.054 -10.7215 646.923 -15.8765 652.775L-244.691 912.531C-249.222 917.675 -251.281 924.558 -250.311 931.323L-196.23 1308.5C-195.324 1314.82 -191.859 1320.45 -186.659 1324.05L110.947 1530.08C117.028 1534.3 124.785 1535.25 131.763 1532.65L445.591 1415.77C452.569 1413.17 457.904 1407.34 459.909 1400.12L558.002 1046.71C559.716 1040.53 558.824 1033.95 555.539 1028.51L359.453 704.22C355.936 698.404 350.027 694.489 343.319 693.531L4.61195 645.144Z" stroke="url(#paint59_linear_21_50)" stroke-opacity="0.3" stroke-width="4"/>
<path opacity="0.884058" d="M-6.95261 652.1C-14.4653 650.649 -22.2407 653.085 -27.6713 658.591L-267.864 902.11C-272.687 907 -275.125 913.773 -274.517 920.595L-241.357 1292.95C-240.787 1299.35 -237.584 1305.2 -232.522 1309.08L50.4972 1525.76C56.3463 1530.24 64.0094 1531.58 71.082 1529.36L387.725 1430.16C394.797 1427.95 400.413 1422.44 402.808 1415.38L518.736 1073.72C520.81 1067.61 520.265 1060.93 517.232 1055.29L340.948 727.778C337.719 721.778 331.993 717.562 325.321 716.274L-6.95261 652.1Z" stroke="url(#paint60_linear_21_50)" stroke-opacity="0.3" stroke-width="4"/>
<path opacity="0.898551" d="M-19.0362 660.5C-26.4121 658.698 -34.2337 660.7 -39.9166 665.845L-290.445 892.636C-295.546 897.254 -298.359 903.896 -298.117 910.755L-285.217 1277.1C-284.989 1283.58 -282.06 1289.63 -277.147 1293.78L-8.9829 1520.14C-3.37792 1524.87 4.1713 1526.59 11.3164 1524.76L329.827 1443.23C336.972 1441.4 342.847 1436.24 345.622 1429.37L478.434 1100.36C480.867 1094.33 480.676 1087.58 477.906 1081.75L321.207 752.219C318.273 746.048 312.743 741.542 306.123 739.925L-19.0362 660.5Z" stroke="url(#paint61_linear_21_50)" stroke-opacity="0.3" stroke-width="4"/>
<path opacity="0.913043" d="M-31.7195 670.292C-38.9404 668.151 -46.7818 669.72 -52.6924 674.49L-312.497 884.128C-317.862 888.457 -321.042 894.947 -321.169 901.824L-327.806 1261.04C-327.927 1267.57 -325.282 1273.81 -320.53 1278.23L-67.4295 1513.3C-62.0792 1518.27 -54.6639 1520.36 -47.469 1518.92L271.975 1454.98C279.17 1453.54 285.28 1448.75 288.424 1442.08L437.124 1126.59C439.916 1120.66 440.084 1113.85 437.586 1107.84L300.187 777.46C297.556 771.135 292.237 766.346 285.683 764.403L-31.7195 670.292Z" stroke="url(#paint62_linear_21_50)" stroke-opacity="0.3" stroke-width="4"/>
<path opacity="0.927536" d="M-45.0751 681.42C-52.1237 678.952 -59.9583 680.091 -66.071 684.473L-334.077 876.599C-339.691 880.623 -343.232 886.94 -343.729 893.816L-369.12 1244.83C-369.595 1251.4 -367.245 1257.83 -362.664 1262.51L-124.78 1505.33C-119.694 1510.52 -112.432 1512.97 -105.21 1511.92L214.245 1465.46C221.466 1464.41 227.791 1459.99 231.288 1453.55L394.839 1152.34C397.989 1146.54 398.523 1139.69 396.307 1133.51L277.855 803.418C275.535 796.952 270.439 791.891 263.966 789.625L-45.0751 681.42Z" stroke="url(#paint63_linear_21_50)" stroke-opacity="0.3" stroke-width="4"/>
<path opacity="0.942029" d="M-59.1756 693.822C-66.0352 691.04 -73.8368 691.754 -80.1252 695.739L-355.249 870.06C-361.094 873.763 -364.988 879.887 -365.856 886.742L-409.163 1228.55C-409.997 1235.14 -407.953 1241.75 -403.554 1246.68L-180.98 1496.3C-176.167 1501.7 -169.077 1504.49 -161.851 1503.83L156.708 1474.68C163.934 1474.02 170.448 1469.99 174.282 1463.8L351.615 1177.58C355.12 1171.93 356.025 1165.05 354.099 1158.71L254.181 830.006C252.177 823.414 247.317 818.091 240.941 815.506L-59.1756 693.822Z" stroke="url(#paint64_linear_21_50)" stroke-opacity="0.3" stroke-width="4"/>
<path opacity="0.956522" d="M-74.0861 707.433C-80.7411 704.353 -88.4838 704.648 -94.9209 708.226L-376.072 864.518C-382.132 867.886 -386.368 873.796 -387.608 880.61L-447.939 1212.28C-449.139 1218.87 -447.41 1225.65 -443.203 1230.83L-235.979 1486.3C-231.447 1491.89 -224.547 1495.01 -217.34 1494.74L99.435 1482.68C106.642 1482.41 113.321 1478.77 117.476 1472.85L307.487 1202.26C311.344 1196.77 312.627 1189.88 310.999 1183.39L229.14 857.137C227.458 850.434 222.846 844.861 216.581 841.962L-74.0861 707.433Z" stroke="url(#paint65_linear_21_50)" stroke-opacity="0.3" stroke-width="4"/>
<path opacity="0.971014" d="M-89.8672 722.186C-96.3028 718.823 -103.961 718.706 -110.519 721.872L-396.605 859.975C-402.861 862.995 -407.429 868.672 -409.039 875.424L-485.46 1196.09C-487.029 1202.67 -485.624 1209.6 -481.621 1215.03L-289.732 1475.42C-285.488 1481.18 -278.794 1484.62 -271.629 1484.73L42.4945 1489.5C49.6599 1489.61 56.4786 1486.37 60.9365 1480.75L262.497 1226.34C266.703 1221.03 268.366 1214.15 267.046 1207.52L202.714 884.722C201.359 877.925 197.006 872.112 190.867 868.904L-89.8672 722.186Z" stroke="url(#paint66_linear_21_50)" stroke-opacity="0.3" stroke-width="4"/>
<path opacity="0.985507" d="M-106.577 738.009C-112.78 734.378 -120.329 733.861 -126.98 736.61L-416.909 856.432C-423.342 859.09 -428.231 864.514 -430.208 871.185L-521.741 1180.05C-523.682 1186.6 -522.613 1193.66 -518.823 1199.34L-342.201 1463.73C-338.25 1469.65 -331.78 1473.39 -324.679 1473.88L-14.0516 1495.18C-6.95037 1495.66 -0.0178975 1492.84 4.72292 1487.52L216.684 1249.77C221.233 1244.67 223.282 1237.81 222.277 1231.06L174.887 912.673C173.864 905.796 169.781 899.757 163.783 896.246L-106.577 738.009Z" stroke="url(#paint67_linear_21_50)" stroke-opacity="0.3" stroke-width="4"/>
<path d="M-124.267 754.827C-130.224 750.947 -137.64 750.04 -144.356 752.369L-437.042 853.883C-443.632 856.169 -448.828 861.321 -451.17 867.891L-556.799 1164.23C-559.117 1170.73 -558.392 1177.92 -554.825 1183.83L-393.352 1451.34C-389.7 1457.39 -383.469 1461.43 -376.454 1462.29L-70.142 1499.76C-63.1271 1500.61 -56.1071 1498.2 -51.1042 1493.21L170.092 1272.51C174.978 1267.64 177.416 1260.83 176.734 1253.96L145.653 940.901C144.964 933.96 141.162 927.707 135.318 923.901L-124.267 754.827Z" stroke="url(#paint68_linear_21_50)" stroke-opacity="0.3" stroke-width="4"/>
<defs>
<linearGradient id="paint0_linear_21_50" x1="2584.63" y1="1662.38" x2="1980.76" y2="-265.183" gradientUnits="userSpaceOnUse">
<stop stop-color="#FF1CF7"/>
<stop offset="1" stop-color="#00F0FF"/>
</linearGradient>
<linearGradient id="paint1_linear_21_50" x1="2497.59" y1="1673.75" x2="2000.77" y2="-267.079" gradientUnits="userSpaceOnUse">
<stop stop-color="#FF1CF7"/>
<stop offset="1" stop-color="#00F0FF"/>
</linearGradient>
<linearGradient id="paint2_linear_21_50" x1="2410.78" y1="1682.33" x2="2020.87" y2="-265.748" gradientUnits="userSpaceOnUse">
<stop stop-color="#FF1CF7"/>
<stop offset="1" stop-color="#00F0FF"/>
</linearGradient>
<linearGradient id="paint3_linear_21_50" x1="2324.35" y1="1688.16" x2="2040.85" y2="-261.185" gradientUnits="userSpaceOnUse">
<stop stop-color="#FF1CF7"/>
<stop offset="1" stop-color="#00F0FF"/>
</linearGradient>
<linearGradient id="paint4_linear_21_50" x1="2238.44" y1="1691.28" x2="2060.5" y2="-253.401" gradientUnits="userSpaceOnUse">
<stop stop-color="#FF1CF7"/>
<stop offset="1" stop-color="#00F0FF"/>
</linearGradient>
<linearGradient id="paint5_linear_21_50" x1="2153.21" y1="1691.74" x2="2079.59" y2="-242.426" gradientUnits="userSpaceOnUse">
<stop stop-color="#FF1CF7"/>
<stop offset="1" stop-color="#00F0FF"/>
</linearGradient>
<linearGradient id="paint6_linear_21_50" x1="2068.77" y1="1689.62" x2="2097.92" y2="-228.309" gradientUnits="userSpaceOnUse">
<stop stop-color="#FF1CF7"/>
<stop offset="1" stop-color="#00F0FF"/>
</linearGradient>
<linearGradient id="paint7_linear_21_50" x1="1985.27" y1="1684.98" x2="2115.28" y2="-211.116" gradientUnits="userSpaceOnUse">
<stop stop-color="#FF1CF7"/>
<stop offset="1" stop-color="#00F0FF"/>
</linearGradient>
<linearGradient id="paint8_linear_21_50" x1="1902.83" y1="1677.9" x2="2131.45" y2="-190.931" gradientUnits="userSpaceOnUse">
<stop stop-color="#FF1CF7"/>
<stop offset="1" stop-color="#00F0FF"/>
</linearGradient>
<linearGradient id="paint9_linear_21_50" x1="1821.57" y1="1668.45" x2="2146.24" y2="-167.858" gradientUnits="userSpaceOnUse">
<stop stop-color="#FF1CF7"/>
<stop offset="1" stop-color="#00F0FF"/>
</linearGradient>
<linearGradient id="paint10_linear_21_50" x1="1741.61" y1="1656.74" x2="2159.47" y2="-142.013" gradientUnits="userSpaceOnUse">
<stop stop-color="#FF1CF7"/>
<stop offset="1" stop-color="#00F0FF"/>
</linearGradient>
<linearGradient id="paint11_linear_21_50" x1="1663.06" y1="1642.84" x2="2170.96" y2="-113.534" gradientUnits="userSpaceOnUse">
<stop stop-color="#FF1CF7"/>
<stop offset="1" stop-color="#00F0FF"/>
</linearGradient>
<linearGradient id="paint12_linear_21_50" x1="1586.02" y1="1626.87" x2="2180.54" y2="-82.565" gradientUnits="userSpaceOnUse">
<stop stop-color="#FF1CF7"/>
<stop offset="1" stop-color="#00F0FF"/>
</linearGradient>
<linearGradient id="paint13_linear_21_50" x1="1510.58" y1="1608.93" x2="2188.07" y2="-49.2686" gradientUnits="userSpaceOnUse">
<stop stop-color="#FF1CF7"/>
<stop offset="1" stop-color="#00F0FF"/>
</linearGradient>
<linearGradient id="paint14_linear_21_50" x1="1436.84" y1="1589.12" x2="2193.42" y2="-13.8137" gradientUnits="userSpaceOnUse">
<stop stop-color="#FF1CF7"/>
<stop offset="1" stop-color="#00F0FF"/>
</linearGradient>
<linearGradient id="paint15_linear_21_50" x1="1364.89" y1="1567.57" x2="2196.47" y2="23.6201" gradientUnits="userSpaceOnUse">
<stop stop-color="#FF1CF7"/>
<stop offset="1" stop-color="#00F0FF"/>
</linearGradient>
<linearGradient id="paint16_linear_21_50" x1="1294.79" y1="1544.38" x2="2197.13" y2="62.8485" gradientUnits="userSpaceOnUse">
<stop stop-color="#FF1CF7"/>
<stop offset="1" stop-color="#00F0FF"/>
</linearGradient>
<linearGradient id="paint17_linear_21_50" x1="1226.61" y1="1519.69" x2="2195.31" y2="103.683" gradientUnits="userSpaceOnUse">
<stop stop-color="#FF1CF7"/>
<stop offset="1" stop-color="#00F0FF"/>
</linearGradient>
<linearGradient id="paint18_linear_21_50" x1="1160.43" y1="1493.6" x2="2190.96" y2="145.931" gradientUnits="userSpaceOnUse">
<stop stop-color="#FF1CF7"/>
<stop offset="1" stop-color="#00F0FF"/>
</linearGradient>
<linearGradient id="paint19_linear_21_50" x1="1096.29" y1="1466.26" x2="2184.04" y2="189.404" gradientUnits="userSpaceOnUse">
<stop stop-color="#FF1CF7"/>
<stop offset="1" stop-color="#00F0FF"/>
</linearGradient>
<linearGradient id="paint20_linear_21_50" x1="1034.23" y1="1437.79" x2="2174.5" y2="233.913" gradientUnits="userSpaceOnUse">
<stop stop-color="#FF1CF7"/>
<stop offset="1" stop-color="#00F0FF"/>
</linearGradient>
<linearGradient id="paint21_linear_21_50" x1="974.303" y1="1408.32" x2="2162.35" y2="279.271" gradientUnits="userSpaceOnUse">
<stop stop-color="#FF1CF7"/>
<stop offset="1" stop-color="#00F0FF"/>
</linearGradient>
<linearGradient id="paint22_linear_21_50" x1="916.535" y1="1377.97" x2="2147.59" y2="325.3" gradientUnits="userSpaceOnUse">
<stop stop-color="#FF1CF7"/>
<stop offset="1" stop-color="#00F0FF"/>
</linearGradient>
<linearGradient id="paint23_linear_21_50" x1="860.951" y1="1346.89" x2="2130.24" y2="371.826" gradientUnits="userSpaceOnUse">
<stop stop-color="#FF1CF7"/>
<stop offset="1" stop-color="#00F0FF"/>
</linearGradient>
<linearGradient id="paint24_linear_21_50" x1="807.564" y1="1315.2" x2="2110.32" y2="418.684" gradientUnits="userSpaceOnUse">
<stop stop-color="#FF1CF7"/>
<stop offset="1" stop-color="#00F0FF"/>
</linearGradient>
<linearGradient id="paint25_linear_21_50" x1="756.386" y1="1283.03" x2="2087.87" y2="465.716" gradientUnits="userSpaceOnUse">
<stop stop-color="#FF1CF7"/>
<stop offset="1" stop-color="#00F0FF"/>
</linearGradient>
<linearGradient id="paint26_linear_21_50" x1="707.417" y1="1250.51" x2="2062.96" y2="512.776" gradientUnits="userSpaceOnUse">
<stop stop-color="#FF1CF7"/>
<stop offset="1" stop-color="#00F0FF"/>
</linearGradient>
<linearGradient id="paint27_linear_21_50" x1="660.651" y1="1217.78" x2="2035.63" y2="559.725" gradientUnits="userSpaceOnUse">
<stop stop-color="#FF1CF7"/>
<stop offset="1" stop-color="#00F0FF"/>
</linearGradient>
<linearGradient id="paint28_linear_21_50" x1="616.075" y1="1184.96" x2="2005.95" y2="606.435" gradientUnits="userSpaceOnUse">
<stop stop-color="#FF1CF7"/>
<stop offset="1" stop-color="#00F0FF"/>
</linearGradient>
<linearGradient id="paint29_linear_21_50" x1="573.669" y1="1152.18" x2="1973.99" y2="652.788" gradientUnits="userSpaceOnUse">
<stop stop-color="#FF1CF7"/>
<stop offset="1" stop-color="#00F0FF"/>
</linearGradient>
<linearGradient id="paint30_linear_21_50" x1="533.405" y1="1119.56" x2="1939.83" y2="698.676" gradientUnits="userSpaceOnUse">
<stop stop-color="#FF1CF7"/>
<stop offset="1" stop-color="#00F0FF"/>
</linearGradient>
<linearGradient id="paint31_linear_21_50" x1="495.25" y1="1087.22" x2="1903.54" y2="744" gradientUnits="userSpaceOnUse">
<stop stop-color="#FF1CF7"/>
<stop offset="1" stop-color="#00F0FF"/>
</linearGradient>
<linearGradient id="paint32_linear_21_50" x1="459.163" y1="1055.29" x2="1865.2" y2="788.669" gradientUnits="userSpaceOnUse">
<stop stop-color="#FF1CF7"/>
<stop offset="1" stop-color="#00F0FF"/>
</linearGradient>
<linearGradient id="paint33_linear_21_50" x1="425.098" y1="1023.86" x2="1824.9" y2="832.602" gradientUnits="userSpaceOnUse">
<stop stop-color="#FF1CF7"/>
<stop offset="1" stop-color="#00F0FF"/>
</linearGradient>
<linearGradient id="paint34_linear_21_50" x1="393.001" y1="993.059" x2="1782.71" y2="875.724" gradientUnits="userSpaceOnUse">
<stop stop-color="#FF1CF7"/>
<stop offset="1" stop-color="#00F0FF"/>
</linearGradient>
<linearGradient id="paint35_linear_21_50" x1="362.815" y1="962.988" x2="1738.7" y2="917.968" gradientUnits="userSpaceOnUse">
<stop stop-color="#FF1CF7"/>
<stop offset="1" stop-color="#00F0FF"/>
</linearGradient>
<linearGradient id="paint36_linear_21_50" x1="334.475" y1="933.749" x2="1692.97" y2="959.272" gradientUnits="userSpaceOnUse">
<stop stop-color="#FF1CF7"/>
<stop offset="1" stop-color="#00F0FF"/>
</linearGradient>
<linearGradient id="paint37_linear_21_50" x1="307.913" y1="905.439" x2="1645.57" y2="999.579" gradientUnits="userSpaceOnUse">
<stop stop-color="#FF1CF7"/>
<stop offset="1" stop-color="#00F0FF"/>
</linearGradient>
<linearGradient id="paint38_linear_21_50" x1="283.054" y1="878.15" x2="1596.59" y2="1038.84" gradientUnits="userSpaceOnUse">
<stop stop-color="#FF1CF7"/>
<stop offset="1" stop-color="#00F0FF"/>
</linearGradient>
<linearGradient id="paint39_linear_21_50" x1="259.822" y1="851.968" x2="1546.1" y2="1077" gradientUnits="userSpaceOnUse">
<stop stop-color="#FF1CF7"/>
<stop offset="1" stop-color="#00F0FF"/>
</linearGradient>
<linearGradient id="paint40_linear_21_50" x1="238.132" y1="826.975" x2="1494.17" y2="1114.01" gradientUnits="userSpaceOnUse">
<stop stop-color="#FF1CF7"/>
<stop offset="1" stop-color="#00F0FF"/>
</linearGradient>
<linearGradient id="paint41_linear_21_50" x1="217.899" y1="803.247" x2="1440.87" y2="1149.84" gradientUnits="userSpaceOnUse">
<stop stop-color="#FF1CF7"/>
<stop offset="1" stop-color="#00F0FF"/>
</linearGradient>
<linearGradient id="paint42_linear_21_50" x1="199.034" y1="780.852" x2="1386.27" y2="1184.44" gradientUnits="userSpaceOnUse">
<stop stop-color="#FF1CF7"/>
<stop offset="1" stop-color="#00F0FF"/>
</linearGradient>
<linearGradient id="paint43_linear_21_50" x1="181.443" y1="759.854" x2="1330.42" y2="1217.77" gradientUnits="userSpaceOnUse">
<stop stop-color="#FF1CF7"/>
<stop offset="1" stop-color="#00F0FF"/>
</linearGradient>
<linearGradient id="paint44_linear_21_50" x1="165.032" y1="740.311" x2="1273.41" y2="1249.78" gradientUnits="userSpaceOnUse">
<stop stop-color="#FF1CF7"/>
<stop offset="1" stop-color="#00F0FF"/>
</linearGradient>
<linearGradient id="paint45_linear_21_50" x1="149.7" y1="722.275" x2="1215.3" y2="1280.44" gradientUnits="userSpaceOnUse">
<stop stop-color="#FF1CF7"/>
<stop offset="1" stop-color="#00F0FF"/>
</linearGradient>
<linearGradient id="paint46_linear_21_50" x1="135.351" y1="705.789" x2="1156.16" y2="1309.71" gradientUnits="userSpaceOnUse">
<stop stop-color="#FF1CF7"/>
<stop offset="1" stop-color="#00F0FF"/>
</linearGradient>
<linearGradient id="paint47_linear_21_50" x1="121.882" y1="690.892" x2="1096.05" y2="1337.55" gradientUnits="userSpaceOnUse">
<stop stop-color="#FF1CF7"/>
<stop offset="1" stop-color="#00F0FF"/>
</linearGradient>
<linearGradient id="paint48_linear_21_50" x1="109.191" y1="677.617" x2="1035.05" y2="1363.92" gradientUnits="userSpaceOnUse">
<stop stop-color="#FF1CF7"/>
<stop offset="1" stop-color="#00F0FF"/>
</linearGradient>
<linearGradient id="paint49_linear_21_50" x1="97.174" y1="665.987" x2="973.234" y2="1388.78" gradientUnits="userSpaceOnUse">
<stop stop-color="#FF1CF7"/>
<stop offset="1" stop-color="#00F0FF"/>
</linearGradient>
<linearGradient id="paint50_linear_21_50" x1="85.728" y1="656.023" x2="910.681" y2="1412.1" gradientUnits="userSpaceOnUse">
<stop stop-color="#FF1CF7"/>
<stop offset="1" stop-color="#00F0FF"/>
</linearGradient>
<linearGradient id="paint51_linear_21_50" x1="74.7498" y1="647.737" x2="847.472" y2="1433.84" gradientUnits="userSpaceOnUse">
<stop stop-color="#FF1CF7"/>
<stop offset="1" stop-color="#00F0FF"/>
</linearGradient>
<linearGradient id="paint52_linear_21_50" x1="64.1365" y1="641.133" x2="783.693" y2="1453.97" gradientUnits="userSpaceOnUse">
<stop stop-color="#FF1CF7"/>
<stop offset="1" stop-color="#00F0FF"/>
</linearGradient>
<linearGradient id="paint53_linear_21_50" x1="53.7845" y1="636.214" x2="719.432" y2="1472.45" gradientUnits="userSpaceOnUse">
<stop stop-color="#FF1CF7"/>
<stop offset="1" stop-color="#00F0FF"/>
</linearGradient>
<linearGradient id="paint54_linear_21_50" x1="43.5926" y1="632.971" x2="654.782" y2="1489.27" gradientUnits="userSpaceOnUse">
<stop stop-color="#FF1CF7"/>
<stop offset="1" stop-color="#00F0FF"/>
</linearGradient>
<linearGradient id="paint55_linear_21_50" x1="33.4619" y1="631.392" x2="589.842" y2="1504.4" gradientUnits="userSpaceOnUse">
<stop stop-color="#FF1CF7"/>
<stop offset="1" stop-color="#00F0FF"/>
</linearGradient>
<linearGradient id="paint56_linear_21_50" x1="23.2946" y1="631.458" x2="524.714" y2="1517.82" gradientUnits="userSpaceOnUse">
<stop stop-color="#FF1CF7"/>
<stop offset="1" stop-color="#00F0FF"/>
</linearGradient>
<linearGradient id="paint57_linear_21_50" x1="12.9927" y1="633.146" x2="459.501" y2="1529.54" gradientUnits="userSpaceOnUse">
<stop stop-color="#FF1CF7"/>
<stop offset="1" stop-color="#00F0FF"/>
</linearGradient>
<linearGradient id="paint58_linear_21_50" x1="2.4653" y1="636.423" x2="394.313" y2="1539.53" gradientUnits="userSpaceOnUse">
<stop stop-color="#FF1CF7"/>
<stop offset="1" stop-color="#00F0FF"/>
</linearGradient>
<linearGradient id="paint59_linear_21_50" x1="-8.37949" y1="641.256" x2="329.261" y2="1547.81" gradientUnits="userSpaceOnUse">
<stop stop-color="#FF1CF7"/>
<stop offset="1" stop-color="#00F0FF"/>
</linearGradient>
<linearGradient id="paint60_linear_21_50" x1="-19.6287" y1="647.604" x2="264.456" y2="1554.39" gradientUnits="userSpaceOnUse">
<stop stop-color="#FF1CF7"/>
<stop offset="1" stop-color="#00F0FF"/>
</linearGradient>
<linearGradient id="paint61_linear_21_50" x1="-31.3659" y1="655.419" x2="200.012" y2="1559.3" gradientUnits="userSpaceOnUse">
<stop stop-color="#FF1CF7"/>
<stop offset="1" stop-color="#00F0FF"/>
</linearGradient>
<linearGradient id="paint62_linear_21_50" x1="-43.6732" y1="664.653" x2="136.041" y2="1562.55" gradientUnits="userSpaceOnUse">
<stop stop-color="#FF1CF7"/>
<stop offset="1" stop-color="#00F0FF"/>
</linearGradient>
<linearGradient id="paint63_linear_21_50" x1="-56.6247" y1="675.249" x2="72.6574" y2="1564.2" gradientUnits="userSpaceOnUse">
<stop stop-color="#FF1CF7"/>
<stop offset="1" stop-color="#00F0FF"/>
</linearGradient>
<linearGradient id="paint64_linear_21_50" x1="-70.2947" y1="687.149" x2="9.96803" y2="1564.3" gradientUnits="userSpaceOnUse">
<stop stop-color="#FF1CF7"/>
<stop offset="1" stop-color="#00F0FF"/>
</linearGradient>
<linearGradient id="paint65_linear_21_50" x1="-84.7503" y1="700.289" x2="-51.9198" y2="1562.9" gradientUnits="userSpaceOnUse">
<stop stop-color="#FF1CF7"/>
<stop offset="1" stop-color="#00F0FF"/>
</linearGradient>
<linearGradient id="paint66_linear_21_50" x1="-100.054" y1="714.602" x2="-112.904" y2="1560.07" gradientUnits="userSpaceOnUse">
<stop stop-color="#FF1CF7"/>
<stop offset="1" stop-color="#00F0FF"/>
</linearGradient>
<linearGradient id="paint67_linear_21_50" x1="-116.266" y1="730.019" x2="-172.89" y2="1555.88" gradientUnits="userSpaceOnUse">
<stop stop-color="#FF1CF7"/>
<stop offset="1" stop-color="#00F0FF"/>
</linearGradient>
<linearGradient id="paint68_linear_21_50" x1="-133.439" y1="746.466" x2="-231.79" y2="1550.44" gradientUnits="userSpaceOnUse">
<stop stop-color="#FF1CF7"/>
<stop offset="1" stop-color="#00F0FF"/>
</linearGradient>
</defs>
</svg>
